# Created by FreeCAD <https://www.freecad.org>
v -47.432659 -22.155149 43.000000
v -49.157349 -22.777851 43.000000
v -48.535534 -23.535534 43.000000
v -46.846210 -22.674698 43.000000
v -47.777851 -24.157349 43.000000
v -46.913418 -24.619398 43.000000
v -47.877731 -21.510351 43.000000
v -49.619396 -21.913418 43.000000
v -46.152466 -23.038803 43.000000
v -45.975452 -24.903927 43.000000
v -48.155560 -20.777777 43.000000
v -49.903927 -20.975452 43.000000
v -45.391743 -23.226303 43.000000
v -45.000000 -25.000000 43.000000
v -48.250000 -20.000000 43.000000
v -50.000000 -20.000000 43.000000
v -44.608257 -23.226303 43.000000
v -48.155560 -19.222223 43.000000
v -43.847534 -23.038803 43.000000
v -47.877731 -18.489649 43.000000
v -43.153790 -22.674698 43.000000
v -47.432659 -17.844851 43.000000
v -42.567341 -22.155149 43.000000
v -50.000000 20.000000 43.000000
v -47.432659 17.844851 43.000000
v -46.846210 17.325302 43.000000
v -46.846210 -17.325302 43.000000
v -47.877731 18.489649 43.000000
v -46.152466 16.961197 43.000000
v -46.152466 -16.961197 43.000000
v -48.155560 19.222223 43.000000
v -45.391743 16.773697 43.000000
v -45.391743 -16.773697 43.000000
v -48.250000 20.000000 43.000000
v -49.903927 20.975452 43.000000
v -44.608257 16.773697 43.000000
v -44.608257 -16.773697 43.000000
v -48.155560 20.777777 43.000000
v -49.619396 21.913418 43.000000
v -43.847534 16.961197 43.000000
v -43.847534 -16.961197 43.000000
v -47.877731 21.510351 43.000000
v -49.157349 22.777851 43.000000
v -43.153790 17.325302 43.000000
v -43.153790 -17.325302 43.000000
v -47.432659 22.155149 43.000000
v -48.535534 23.535534 43.000000
v -42.567341 17.844851 43.000000
v -42.567341 -17.844851 43.000000
v -46.846210 22.674698 43.000000
v -42.122269 18.489649 43.000000
v -42.122269 -18.489649 43.000000
v -47.777851 24.157349 43.000000
v -46.913418 24.619398 43.000000
v -46.152466 23.038803 43.000000
v -45.975452 24.903927 43.000000
v -45.391743 23.226303 43.000000
v -45.000000 25.000000 43.000000
v -43.153790 22.674698 43.000000
v -42.567341 22.155149 43.000000
v -43.847534 23.038803 43.000000
v -44.608257 23.226303 43.000000
v 42.567341 -22.155149 43.000000
v 45.000000 -25.000000 43.000000
v -42.122269 -21.510351 43.000000
v 43.153790 -22.674698 43.000000
v 42.122269 -21.510351 43.000000
v -41.844440 -20.777777 43.000000
v 43.847534 -23.038803 43.000000
v 41.844440 -20.777777 43.000000
v 44.608257 -23.226303 43.000000
v 41.750000 -20.000000 43.000000
v -41.750000 -20.000000 43.000000
v 45.391743 -23.226303 43.000000
v 45.975452 -24.903927 43.000000
v 41.844440 -19.222223 43.000000
v -41.844440 -19.222223 43.000000
v 46.152466 -23.038803 43.000000
v 46.913418 -24.619398 43.000000
v 42.122269 -18.489649 43.000000
v 46.846210 -22.674698 43.000000
v 47.777851 -24.157349 43.000000
v 48.535534 -23.535534 43.000000
v 47.432659 -22.155149 43.000000
v 49.157349 -22.777851 43.000000
v 47.877731 -21.510351 43.000000
v 49.619396 -21.913418 43.000000
v 48.155560 -20.777777 43.000000
v 49.903927 -20.975452 43.000000
v 48.250000 -20.000000 43.000000
v 50.000000 -20.000000 43.000000
v 48.155560 -19.222223 43.000000
v 47.877731 -18.489649 43.000000
v 47.432659 -17.844851 43.000000
v 42.567341 17.844851 43.000000
v 42.567341 -17.844851 43.000000
v 43.153790 17.325302 43.000000
v 43.153790 -17.325302 43.000000
v 42.122269 18.489649 43.000000
v -41.844440 19.222223 43.000000
v 43.847534 16.961197 43.000000
v 43.847534 -16.961197 43.000000
v 41.844440 19.222223 43.000000
v 44.608257 16.773697 43.000000
v 44.608257 -16.773697 43.000000
v 41.750000 20.000000 43.000000
v -41.750000 20.000000 43.000000
v 45.391743 16.773697 43.000000
v 45.391743 -16.773697 43.000000
v 41.844440 20.777777 43.000000
v -41.844440 20.777777 43.000000
v 46.152466 16.961197 43.000000
v 46.152466 -16.961197 43.000000
v 42.122269 21.510351 43.000000
v -42.122269 21.510351 43.000000
v 46.846210 17.325302 43.000000
v 46.846210 -17.325302 43.000000
v 42.567341 22.155149 43.000000
v 47.432659 17.844851 43.000000
v 50.000000 20.000000 43.000000
v 47.877731 18.489649 43.000000
v 48.155560 19.222223 43.000000
v 48.250000 20.000000 43.000000
v 45.000000 25.000000 43.000000
v 44.608257 23.226303 43.000000
v 45.391743 23.226303 43.000000
v 43.847534 23.038803 43.000000
v 43.153790 22.674698 43.000000
v 49.903927 20.975452 43.000000
v 48.155560 20.777777 43.000000
v 45.975452 24.903927 43.000000
v 46.152466 23.038803 43.000000
v 49.619396 21.913418 43.000000
v 47.877731 21.510351 43.000000
v 46.913418 24.619398 43.000000
v 46.846210 22.674698 43.000000
v 49.157349 22.777851 43.000000
v 47.432659 22.155149 43.000000
v 47.777851 24.157349 43.000000
v 48.535534 23.535534 43.000000
v 47.500000 -20.000000 42.250000
v 46.699150 -19.581198 41.500000
v 46.750000 -20.000000 41.500000
v 46.699150 -20.418802 41.500000
v 47.349232 -19.144949 42.250000
v 46.549549 -19.186735 41.500000
v 46.915112 -18.393030 42.250000
v 46.309895 -18.839535 41.500000
v 45.994114 -18.559778 41.500000
v 46.250000 -17.834936 42.250000
v 45.620560 -18.363722 41.500000
v 45.434120 -17.537981 42.250000
v 45.210938 -18.262760 41.500000
v 44.565880 -17.537981 42.250000
v 44.789062 -18.262760 41.500000
v 44.379440 -18.363722 41.500000
v 43.750000 -17.834936 42.250000
v 44.005886 -18.559778 41.500000
v 43.084888 -18.393030 42.250000
v 43.690105 -18.839535 41.500000
v 43.450451 -19.186735 41.500000
v 42.650768 -19.144949 42.250000
v 43.300850 -19.581198 41.500000
v 42.500000 -20.000000 42.250000
v 43.250000 -20.000000 41.500000
v 43.300850 -20.418802 41.500000
v 42.650768 -20.855051 42.250000
v 43.450451 -20.813265 41.500000
v 43.084888 -21.606970 42.250000
v 43.690105 -21.160465 41.500000
v 44.005886 -21.440222 41.500000
v 43.750000 -22.165064 42.250000
v 44.379440 -21.636278 41.500000
v 44.565880 -22.462019 42.250000
v 44.789062 -21.737240 41.500000
v 45.434120 -22.462019 42.250000
v 45.210938 -21.737240 41.500000
v 45.620560 -21.636278 41.500000
v 46.250000 -22.165064 42.250000
v 45.994114 -21.440222 41.500000
v 46.915112 -21.606970 42.250000
v 46.309895 -21.160465 41.500000
v 46.549549 -20.813265 41.500000
v 47.349232 -20.855051 42.250000
v -50.000000 20.000000 40.000000
v -50.000000 -20.000000 40.000000
v -49.903927 20.975452 40.000000
v -49.619396 21.913418 40.000000
v -49.157349 22.777851 40.000000
v -48.535534 23.535534 40.000000
v -47.777851 24.157349 40.000000
v -46.913418 24.619398 40.000000
v -45.975452 24.903927 40.000000
v -45.000000 25.000000 40.000000
v -49.903927 -20.975452 40.000000
v -49.619396 -21.913418 40.000000
v -49.157349 -22.777851 40.000000
v -48.535534 -23.535534 40.000000
v -47.777851 -24.157349 40.000000
v -46.913418 -24.619398 40.000000
v -45.975452 -24.903927 40.000000
v -45.000000 -25.000000 40.000000
v 45.000000 25.000000 40.000000
v 45.000000 -25.000000 40.000000
v 50.000000 20.000000 40.000000
v 49.903927 20.975452 40.000000
v 49.619396 21.913418 40.000000
v 49.157349 22.777851 40.000000
v 48.535534 23.535534 40.000000
v 47.777851 24.157349 40.000000
v 46.913418 24.619398 40.000000
v 45.975452 24.903927 40.000000
v 45.975452 -24.903927 40.000000
v 46.913418 -24.619398 40.000000
v 47.777851 -24.157349 40.000000
v 48.535534 -23.535534 40.000000
v 49.157349 -22.777851 40.000000
v 49.619396 -21.913418 40.000000
v 49.903927 -20.975452 40.000000
v 50.000000 -20.000000 40.000000
v 47.500000 20.000000 42.250000
v 46.699150 20.418802 41.500000
v 46.750000 20.000000 41.500000
v 46.699150 19.581198 41.500000
v 47.349232 20.855051 42.250000
v 46.549549 20.813265 41.500000
v 46.915112 21.606970 42.250000
v 46.309895 21.160465 41.500000
v 45.994114 21.440222 41.500000
v 46.250000 22.165064 42.250000
v 45.620560 21.636278 41.500000
v 45.434120 22.462019 42.250000
v 45.210938 21.737240 41.500000
v 44.565880 22.462019 42.250000
v 44.789062 21.737240 41.500000
v 44.379440 21.636278 41.500000
v 43.750000 22.165064 42.250000
v 44.005886 21.440222 41.500000
v 43.084888 21.606970 42.250000
v 43.690105 21.160465 41.500000
v 43.450451 20.813265 41.500000
v 42.650768 20.855051 42.250000
v 43.300850 20.418802 41.500000
v 42.500000 20.000000 42.250000
v 43.250000 20.000000 41.500000
v 43.300850 19.581198 41.500000
v 42.650768 19.144949 42.250000
v 43.450451 19.186735 41.500000
v 43.084888 18.393030 42.250000
v 43.690105 18.839535 41.500000
v 44.005886 18.559778 41.500000
v 43.750000 17.834936 42.250000
v 44.379440 18.363722 41.500000
v 44.565880 17.537981 42.250000
v 44.789062 18.262760 41.500000
v 45.434120 17.537981 42.250000
v 45.210938 18.262760 41.500000
v 45.620560 18.363722 41.500000
v 46.250000 17.834936 42.250000
v 45.994114 18.559778 41.500000
v 46.915112 18.393030 42.250000
v 46.309895 18.839535 41.500000
v 46.549549 19.186735 41.500000
v 47.349232 19.144949 42.250000
v -42.500000 20.000000 42.250000
v -43.300850 20.418802 41.500000
v -43.250000 20.000000 41.500000
v -43.300850 19.581198 41.500000
v -42.650768 20.855051 42.250000
v -43.450451 20.813265 41.500000
v -43.084888 21.606970 42.250000
v -43.690105 21.160465 41.500000
v -44.005886 21.440222 41.500000
v -43.750000 22.165064 42.250000
v -44.379440 21.636278 41.500000
v -44.565880 22.462019 42.250000
v -44.789062 21.737240 41.500000
v -45.434120 22.462019 42.250000
v -45.210938 21.737240 41.500000
v -45.620560 21.636278 41.500000
v -46.250000 22.165064 42.250000
v -45.994114 21.440222 41.500000
v -46.915112 21.606970 42.250000
v -46.309895 21.160465 41.500000
v -46.549549 20.813265 41.500000
v -47.349232 20.855051 42.250000
v -46.699150 20.418802 41.500000
v -47.500000 20.000000 42.250000
v -46.750000 20.000000 41.500000
v -46.699150 19.581198 41.500000
v -47.349232 19.144949 42.250000
v -46.549549 19.186735 41.500000
v -46.915112 18.393030 42.250000
v -46.309895 18.839535 41.500000
v -45.994114 18.559778 41.500000
v -46.250000 17.834936 42.250000
v -45.620560 18.363722 41.500000
v -45.434120 17.537981 42.250000
v -45.210938 18.262760 41.500000
v -44.565880 17.537981 42.250000
v -44.789062 18.262760 41.500000
v -44.379440 18.363722 41.500000
v -43.750000 17.834936 42.250000
v -44.005886 18.559778 41.500000
v -43.084888 18.393030 42.250000
v -43.690105 18.839535 41.500000
v -43.450451 19.186735 41.500000
v -42.650768 19.144949 42.250000
v -42.500000 -20.000000 42.250000
v -43.300850 -19.581198 41.500000
v -43.250000 -20.000000 41.500000
v -43.300850 -20.418802 41.500000
v -42.650768 -19.144949 42.250000
v -43.450451 -19.186735 41.500000
v -43.084888 -18.393030 42.250000
v -43.690105 -18.839535 41.500000
v -44.005886 -18.559778 41.500000
v -43.750000 -17.834936 42.250000
v -44.379440 -18.363722 41.500000
v -44.565880 -17.537981 42.250000
v -44.789062 -18.262760 41.500000
v -45.434120 -17.537981 42.250000
v -45.210938 -18.262760 41.500000
v -45.620560 -18.363722 41.500000
v -46.250000 -17.834936 42.250000
v -45.994114 -18.559778 41.500000
v -46.915112 -18.393030 42.250000
v -46.309895 -18.839535 41.500000
v -46.549549 -19.186735 41.500000
v -47.349232 -19.144949 42.250000
v -46.699150 -19.581198 41.500000
v -47.500000 -20.000000 42.250000
v -46.750000 -20.000000 41.500000
v -46.699150 -20.418802 41.500000
v -47.349232 -20.855051 42.250000
v -46.549549 -20.813265 41.500000
v -46.915112 -21.606970 42.250000
v -46.309895 -21.160465 41.500000
v -45.994114 -21.440222 41.500000
v -46.250000 -22.165064 42.250000
v -45.620560 -21.636278 41.500000
v -45.434120 -22.462019 42.250000
v -45.210938 -21.737240 41.500000
v -44.565880 -22.462019 42.250000
v -44.789062 -21.737240 41.500000
v -44.379440 -21.636278 41.500000
v -43.750000 -22.165064 42.250000
v -44.005886 -21.440222 41.500000
v -43.084888 -21.606970 42.250000
v -43.690105 -21.160465 41.500000
v -43.450451 -20.813265 41.500000
v -42.650768 -20.855051 42.250000
v 46.699150 -19.581198 40.000000
v 46.750000 -20.000000 40.000000
v 46.549549 -19.186735 40.000000
v 46.309895 -18.839535 40.000000
v 45.994114 -18.559778 40.000000
v 45.620560 -18.363722 40.000000
v 45.210938 -18.262760 40.000000
v 44.789062 -18.262760 40.000000
v 44.379440 -18.363722 40.000000
v 44.005886 -18.559778 40.000000
v 43.690105 -18.839535 40.000000
v 43.450451 -19.186735 40.000000
v 43.300850 -19.581198 40.000000
v 43.250000 -20.000000 40.000000
v 43.300850 -20.418802 40.000000
v 43.450451 -20.813265 40.000000
v 43.690105 -21.160465 40.000000
v 44.005886 -21.440222 40.000000
v 44.379440 -21.636278 40.000000
v 44.789062 -21.737240 40.000000
v 45.210938 -21.737240 40.000000
v 45.620560 -21.636278 40.000000
v 45.994114 -21.440222 40.000000
v 46.309895 -21.160465 40.000000
v 46.549549 -20.813265 40.000000
v 46.699150 -20.418802 40.000000
v -46.309895 -21.160465 40.000000
v -45.994114 -21.440222 40.000000
v -46.549549 -20.813265 40.000000
v -45.620560 -21.636278 40.000000
v -46.699150 -20.418802 40.000000
v -45.210938 -21.737240 40.000000
v -46.750000 -20.000000 40.000000
v -44.789062 -21.737240 40.000000
v -46.699150 -19.581198 40.000000
v -44.379440 -21.636278 40.000000
v -46.549549 -19.186735 40.000000
v -44.005886 -21.440222 40.000000
v -46.309895 -18.839535 40.000000
v -43.690105 -21.160465 40.000000
v -45.994114 -18.559778 40.000000
v -43.450451 -20.813265 40.000000
v -45.620560 -18.363722 40.000000
v -46.309895 18.839535 40.000000
v -45.994114 18.559778 40.000000
v -46.549549 19.186735 40.000000
v -45.620560 18.363722 40.000000
v -46.699150 19.581198 40.000000
v -45.210938 18.262760 40.000000
v -45.210938 -18.262760 40.000000
v -46.750000 20.000000 40.000000
v -44.789062 18.262760 40.000000
v -44.789062 -18.262760 40.000000
v -46.699150 20.418802 40.000000
v -44.379440 18.363722 40.000000
v -44.379440 -18.363722 40.000000
v -44.005886 -18.559778 40.000000
v -46.549549 20.813265 40.000000
v -44.005886 18.559778 40.000000
v -46.309895 21.160465 40.000000
v -43.690105 18.839535 40.000000
v -43.690105 -18.839535 40.000000
v -45.994114 21.440222 40.000000
v -43.450451 19.186735 40.000000
v -43.450451 -19.186735 40.000000
v -45.620560 21.636278 40.000000
v -45.210938 21.737240 40.000000
v -43.690105 21.160465 40.000000
v -43.450451 20.813265 40.000000
v -44.005886 21.440222 40.000000
v -44.379440 21.636278 40.000000
v -44.789062 21.737240 40.000000
v -43.300850 -20.418802 40.000000
v -43.250000 -20.000000 40.000000
v -43.300850 -19.581198 40.000000
v 43.690105 18.839535 40.000000
v 44.005886 18.559778 40.000000
v 43.450451 19.186735 40.000000
v -43.300850 19.581198 40.000000
v 44.379440 18.363722 40.000000
v 43.300850 19.581198 40.000000
v 44.789062 18.262760 40.000000
v 43.250000 20.000000 40.000000
v -43.250000 20.000000 40.000000
v 45.210938 18.262760 40.000000
v -43.300850 20.418802 40.000000
v 43.300850 20.418802 40.000000
v 45.620560 18.363722 40.000000
v 43.450451 20.813265 40.000000
v 45.994114 18.559778 40.000000
v 46.309895 18.839535 40.000000
v 46.549549 19.186735 40.000000
v 46.699150 19.581198 40.000000
v 46.750000 20.000000 40.000000
v 44.789062 21.737240 40.000000
v 45.210938 21.737240 40.000000
v 44.379440 21.636278 40.000000
v 44.005886 21.440222 40.000000
v 43.690105 21.160465 40.000000
v 46.699150 20.418802 40.000000
v 45.620560 21.636278 40.000000
v 46.549549 20.813265 40.000000
v 45.994114 21.440222 40.000000
v 46.309895 21.160465 40.000000
vn 0.000000 0.000000 1.000000
vn 0.000000 0.000000 1.000000
vn 0.000000 0.000000 1.000000
vn 0.000000 0.000000 1.000000
vn 0.000000 0.000000 1.000000
vn 0.000000 0.000000 1.000000
vn 0.000000 0.000000 1.000000
vn 0.000000 0.000000 1.000000
vn 0.000000 0.000000 1.000000
vn 0.000000 0.000000 1.000000
vn 0.000000 0.000000 1.000000
vn 0.000000 0.000000 1.000000
vn 0.000000 0.000000 1.000000
vn 0.000000 0.000000 1.000000
vn 0.000000 0.000000 1.000000
vn 0.000000 0.000000 1.000000
vn 0.000000 0.000000 1.000000
vn 0.000000 0.000000 1.000000
vn 0.000000 0.000000 1.000000
vn 0.000000 0.000000 1.000000
vn 0.000000 0.000000 1.000000
vn 0.000000 0.000000 1.000000
vn 0.000000 0.000000 1.000000
vn 0.000000 0.000000 1.000000
vn 0.000000 0.000000 1.000000
vn 0.000000 0.000000 1.000000
vn 0.000000 0.000000 1.000000
vn 0.000000 0.000000 1.000000
vn 0.000000 0.000000 1.000000
vn 0.000000 0.000000 1.000000
vn 0.000000 0.000000 1.000000
vn 0.000000 0.000000 1.000000
vn 0.000000 0.000000 1.000000
vn 0.000000 0.000000 1.000000
vn 0.000000 0.000000 1.000000
vn 0.000000 0.000000 1.000000
vn 0.000000 0.000000 1.000000
vn 0.000000 0.000000 1.000000
vn 0.000000 0.000000 1.000000
vn 0.000000 0.000000 1.000000
vn 0.000000 0.000000 1.000000
vn 0.000000 0.000000 1.000000
vn 0.000000 0.000000 1.000000
vn 0.000000 0.000000 1.000000
vn 0.000000 0.000000 1.000000
vn 0.000000 0.000000 1.000000
vn 0.000000 0.000000 1.000000
vn 0.000000 0.000000 1.000000
vn 0.000000 0.000000 1.000000
vn 0.000000 0.000000 1.000000
vn 0.000000 0.000000 1.000000
vn 0.000000 0.000000 1.000000
vn 0.000000 0.000000 1.000000
vn 0.000000 0.000000 1.000000
vn 0.000000 0.000000 1.000000
vn 0.000000 0.000000 1.000000
vn 0.000000 0.000000 1.000000
vn 0.000000 0.000000 1.000000
vn 0.000000 0.000000 1.000000
vn 0.000000 0.000000 1.000000
vn 0.000000 0.000000 1.000000
vn 0.000000 0.000000 1.000000
vn 0.000000 0.000000 1.000000
vn 0.000000 0.000000 1.000000
vn 0.000000 0.000000 1.000000
vn 0.000000 0.000000 1.000000
vn 0.000000 0.000000 1.000000
vn 0.000000 0.000000 1.000000
vn 0.000000 0.000000 1.000000
vn 0.000000 0.000000 1.000000
vn 0.000000 0.000000 1.000000
vn 0.000000 0.000000 1.000000
vn 0.000000 0.000000 1.000000
vn 0.000000 0.000000 1.000000
vn 0.000000 0.000000 1.000000
vn 0.000000 0.000000 1.000000
vn 0.000000 0.000000 1.000000
vn 0.000000 0.000000 1.000000
vn 0.000000 0.000000 1.000000
vn 0.000000 0.000000 1.000000
vn 0.000000 0.000000 1.000000
vn 0.000000 0.000000 1.000000
vn 0.000000 0.000000 1.000000
vn 0.000000 0.000000 1.000000
vn 0.000000 0.000000 1.000000
vn 0.000000 0.000000 1.000000
vn 0.000000 0.000000 1.000000
vn 0.000000 0.000000 1.000000
vn 0.000000 0.000000 1.000000
vn 0.000000 0.000000 1.000000
vn 0.000000 0.000000 1.000000
vn 0.000000 0.000000 1.000000
vn 0.000000 0.000000 1.000000
vn 0.000000 0.000000 1.000000
vn 0.000000 0.000000 1.000000
vn 0.000000 0.000000 1.000000
vn 0.000000 0.000000 1.000000
vn 0.000000 0.000000 1.000000
vn 0.000000 0.000000 1.000000
vn 0.000000 0.000000 1.000000
vn 0.000000 0.000000 1.000000
vn 0.000000 0.000000 1.000000
vn 0.000000 0.000000 1.000000
vn 0.000000 0.000000 1.000000
vn 0.000000 0.000000 1.000000
vn 0.000000 0.000000 1.000000
vn 0.000000 0.000000 1.000000
vn 0.000000 0.000000 1.000000
vn 0.000000 0.000000 1.000000
vn 0.000000 0.000000 1.000000
vn 0.000000 0.000000 1.000000
vn 0.000000 0.000000 1.000000
vn 0.000000 0.000000 1.000000
vn 0.000000 0.000000 1.000000
vn 0.000000 0.000000 1.000000
vn 0.000000 0.000000 1.000000
vn 0.000000 0.000000 1.000000
vn 0.000000 0.000000 1.000000
vn 0.000000 0.000000 1.000000
vn 0.000000 0.000000 1.000000
vn 0.000000 0.000000 1.000000
vn 0.000000 0.000000 1.000000
vn 0.000000 0.000000 1.000000
vn 0.000000 0.000000 1.000000
vn 0.000000 0.000000 1.000000
vn 0.000000 0.000000 1.000000
vn 0.000000 0.000000 1.000000
vn 0.000000 0.000000 1.000000
vn 0.000000 0.000000 1.000000
vn 0.000000 0.000000 1.000000
vn 0.000000 0.000000 1.000000
vn 0.000000 0.000000 1.000000
vn 0.000000 0.000000 1.000000
vn 0.000000 0.000000 1.000000
vn 0.000000 0.000000 1.000000
vn 0.000000 0.000000 1.000000
vn 0.000000 0.000000 1.000000
vn 0.000000 0.000000 1.000000
vn 0.000000 0.000000 1.000000
vn 0.000000 0.000000 1.000000
vn 0.000000 0.000000 1.000000
vn 0.000000 0.000000 1.000000
vn 0.000000 0.000000 1.000000
vn 0.000000 0.000000 1.000000
vn 0.000000 0.000000 1.000000
vn 0.000000 0.000000 1.000000
vn -0.704515 -0.085545 0.704515
vn -0.704515 -0.085540 0.704515
vn -0.704515 0.085545 0.704515
vn -0.704515 0.085540 0.704515
vn -0.671582 -0.254697 0.695778
vn -0.655655 -0.248659 0.712942
vn -0.682279 -0.120304 0.721126
vn -0.712343 -0.125605 0.690501
vn -0.586872 -0.405088 0.701060
vn -0.467801 -0.528038 0.708758
vn -0.581268 -0.401219 0.707920
vn -0.473438 -0.534402 0.700194
vn -0.598117 -0.345323 0.723193
vn -0.627476 -0.362273 0.689226
vn -0.333390 -0.635221 0.696668
vn -0.326266 -0.621648 0.712112
vn -0.463778 -0.552710 0.692403
vn -0.447413 -0.533207 0.717991
vn -0.171271 -0.694878 0.698435
vn -0.235846 -0.647983 0.724220
vn -0.248017 -0.681423 0.688585
vn -0.168418 -0.683305 0.710444
vn 0.000000 -0.700406 0.713745
vn 0.171271 -0.694878 0.698435
vn 0.000000 -0.719094 0.694913
vn 0.168418 -0.683305 0.710444
vn 0.000000 -0.700406 0.713745
vn 0.000000 -0.719094 0.694913
vn 0.235846 -0.647983 0.724220
vn 0.333390 -0.635221 0.696668
vn 0.248017 -0.681423 0.688585
vn 0.326266 -0.621648 0.712112
vn 0.467801 -0.528038 0.708758
vn 0.586872 -0.405088 0.701060
vn 0.473438 -0.534402 0.700194
vn 0.581268 -0.401219 0.707920
vn 0.447413 -0.533207 0.717991
vn 0.463778 -0.552710 0.692403
vn 0.671582 -0.254697 0.695778
vn 0.655655 -0.248659 0.712942
vn 0.627476 -0.362273 0.689226
vn 0.598117 -0.345323 0.723193
vn 0.704515 -0.085545 0.704515
vn 0.704515 0.085545 0.704515
vn 0.704515 -0.085540 0.704515
vn 0.704515 0.085540 0.704515
vn 0.682279 -0.120304 0.721126
vn 0.712343 -0.125605 0.690501
vn 0.671582 0.254697 0.695778
vn 0.655655 0.248659 0.712942
vn 0.682279 0.120304 0.721126
vn 0.712343 0.125605 0.690501
vn 0.586872 0.405088 0.701060
vn 0.467801 0.528038 0.708758
vn 0.627476 0.362273 0.689226
vn 0.581268 0.401219 0.707920
vn 0.473438 0.534402 0.700194
vn 0.598117 0.345323 0.723193
vn 0.333390 0.635221 0.696668
vn 0.326266 0.621648 0.712112
vn 0.447413 0.533207 0.717991
vn 0.463778 0.552710 0.692403
vn 0.235846 0.647983 0.724220
vn 0.171271 0.694878 0.698435
vn 0.248017 0.681423 0.688585
vn 0.168418 0.683305 0.710444
vn 0.000000 0.719094 0.694913
vn 0.000000 0.700406 0.713745
vn -0.171271 0.694878 0.698435
vn 0.000000 0.719094 0.694913
vn -0.168418 0.683305 0.710444
vn 0.000000 0.700406 0.713745
vn -0.333390 0.635221 0.696668
vn -0.248017 0.681423 0.688585
vn -0.326266 0.621648 0.712112
vn -0.235846 0.647983 0.724220
vn -0.447413 0.533207 0.717991
vn -0.467801 0.528038 0.708758
vn -0.586872 0.405088 0.701060
vn -0.473438 0.534402 0.700194
vn -0.581268 0.401219 0.707920
vn -0.463778 0.552710 0.692403
vn -0.671582 0.254697 0.695778
vn -0.598117 0.345323 0.723193
vn -0.682279 0.120304 0.721126
vn -0.655655 0.248659 0.712942
vn -0.627476 0.362273 0.689226
vn -0.712343 0.125605 0.690501
vn -1.000000 0.000000 0.000000
vn -1.000000 -0.000000 0.000000
vn -0.995185 0.098017 0.000000
vn -0.995185 0.098017 0.000000
vn -0.956940 0.290286 0.000000
vn -0.956940 0.290286 0.000000
vn -0.881922 0.471395 0.000000
vn -0.881922 0.471395 0.000000
vn -0.773010 0.634394 0.000000
vn -0.773010 0.634394 0.000000
vn -0.634394 0.773010 0.000000
vn -0.471397 0.881921 0.000000
vn -0.634394 0.773010 0.000000
vn -0.471397 0.881921 0.000000
vn -0.290285 0.956940 0.000000
vn -0.290285 0.956940 0.000000
vn -0.098017 0.995185 0.000000
vn -0.098017 0.995185 0.000000
vn -0.995185 -0.098017 -0.000000
vn -0.995185 -0.098017 0.000000
vn -0.956940 -0.290286 -0.000000
vn -0.956940 -0.290286 0.000000
vn -0.881922 -0.471395 -0.000000
vn -0.881922 -0.471395 0.000000
vn -0.773010 -0.634394 -0.000000
vn -0.773010 -0.634394 0.000000
vn -0.634394 -0.773010 -0.000000
vn -0.634394 -0.773010 0.000000
vn -0.471397 -0.881921 -0.000000
vn -0.471397 -0.881921 0.000000
vn -0.290285 -0.956940 -0.000000
vn -0.098017 -0.995185 -0.000000
vn -0.290285 -0.956940 0.000000
vn -0.098017 -0.995185 -0.000000
vn 0.000000 1.000000 -0.000000
vn 0.000000 1.000000 0.000000
vn 0.000000 -1.000000 0.000000
vn 0.000000 -1.000000 0.000000
vn 0.995185 0.098017 0.000000
vn 0.995185 0.098017 0.000000
vn 0.956940 0.290286 0.000000
vn 0.956940 0.290286 0.000000
vn 0.881922 0.471395 0.000000
vn 0.881922 0.471395 0.000000
vn 0.773010 0.634394 0.000000
vn 0.773010 0.634394 0.000000
vn 0.634394 0.773010 0.000000
vn 0.471397 0.881921 0.000000
vn 0.634394 0.773010 0.000000
vn 0.471397 0.881921 0.000000
vn 0.290285 0.956940 0.000000
vn 0.290285 0.956940 0.000000
vn 0.098017 0.995185 0.000000
vn 0.098017 0.995185 0.000000
vn 0.098017 -0.995185 0.000000
vn 0.098017 -0.995185 0.000000
vn 0.290285 -0.956940 0.000000
vn 0.290285 -0.956940 0.000000
vn 0.471397 -0.881921 0.000000
vn 0.634394 -0.773010 0.000000
vn 0.471397 -0.881921 0.000000
vn 0.634394 -0.773010 0.000000
vn 0.773010 -0.634394 0.000000
vn 0.773010 -0.634394 0.000000
vn 0.881922 -0.471395 0.000000
vn 0.881922 -0.471395 0.000000
vn 0.956940 -0.290286 0.000000
vn 0.995185 -0.098017 0.000000
vn 0.956940 -0.290286 0.000000
vn 0.995185 -0.098017 0.000000
vn 1.000000 0.000000 0.000000
vn 1.000000 -0.000000 0.000000
vn -0.704515 -0.085545 0.704515
vn -0.704515 -0.085540 0.704515
vn -0.704515 0.085545 0.704515
vn -0.704515 0.085540 0.704515
vn -0.671582 -0.254697 0.695778
vn -0.655655 -0.248659 0.712942
vn -0.682279 -0.120304 0.721126
vn -0.712343 -0.125605 0.690501
vn -0.586872 -0.405088 0.701060
vn -0.467801 -0.528038 0.708758
vn -0.581268 -0.401219 0.707920
vn -0.473438 -0.534402 0.700194
vn -0.598117 -0.345323 0.723193
vn -0.627476 -0.362273 0.689226
vn -0.333390 -0.635221 0.696668
vn -0.326266 -0.621648 0.712112
vn -0.463778 -0.552710 0.692403
vn -0.447413 -0.533207 0.717991
vn -0.171271 -0.694878 0.698435
vn -0.235846 -0.647983 0.724220
vn -0.248017 -0.681423 0.688585
vn -0.168418 -0.683305 0.710444
vn 0.000000 -0.700406 0.713745
vn 0.171271 -0.694878 0.698435
vn 0.000000 -0.719094 0.694913
vn 0.168418 -0.683305 0.710444
vn 0.000000 -0.700406 0.713745
vn 0.000000 -0.719094 0.694913
vn 0.235846 -0.647983 0.724220
vn 0.333390 -0.635221 0.696668
vn 0.248017 -0.681423 0.688585
vn 0.326266 -0.621648 0.712112
vn 0.467801 -0.528038 0.708758
vn 0.586872 -0.405088 0.701060
vn 0.473438 -0.534402 0.700194
vn 0.581268 -0.401219 0.707920
vn 0.447413 -0.533207 0.717991
vn 0.463778 -0.552710 0.692403
vn 0.671582 -0.254697 0.695778
vn 0.655655 -0.248659 0.712942
vn 0.627476 -0.362273 0.689226
vn 0.598117 -0.345323 0.723193
vn 0.704515 -0.085545 0.704515
vn 0.704515 0.085545 0.704515
vn 0.704515 -0.085540 0.704515
vn 0.704515 0.085540 0.704515
vn 0.682279 -0.120304 0.721126
vn 0.712343 -0.125605 0.690501
vn 0.671582 0.254697 0.695778
vn 0.655655 0.248659 0.712942
vn 0.682279 0.120304 0.721126
vn 0.712343 0.125605 0.690501
vn 0.586872 0.405088 0.701060
vn 0.467801 0.528038 0.708758
vn 0.627476 0.362273 0.689226
vn 0.581268 0.401219 0.707920
vn 0.473438 0.534402 0.700194
vn 0.598117 0.345323 0.723193
vn 0.333390 0.635221 0.696668
vn 0.326266 0.621648 0.712112
vn 0.447413 0.533207 0.717991
vn 0.463778 0.552710 0.692403
vn 0.235846 0.647983 0.724220
vn 0.171271 0.694878 0.698435
vn 0.248017 0.681423 0.688585
vn 0.168418 0.683305 0.710444
vn 0.000000 0.719094 0.694913
vn 0.000000 0.700406 0.713745
vn -0.171271 0.694878 0.698435
vn 0.000000 0.719094 0.694913
vn -0.168418 0.683305 0.710444
vn 0.000000 0.700406 0.713745
vn -0.333390 0.635221 0.696668
vn -0.248017 0.681423 0.688585
vn -0.326266 0.621648 0.712112
vn -0.235846 0.647983 0.724220
vn -0.447413 0.533207 0.717991
vn -0.467801 0.528038 0.708758
vn -0.586872 0.405088 0.701060
vn -0.473438 0.534402 0.700194
vn -0.581268 0.401219 0.707920
vn -0.463778 0.552710 0.692403
vn -0.671582 0.254697 0.695778
vn -0.598117 0.345323 0.723193
vn -0.682279 0.120304 0.721126
vn -0.655655 0.248659 0.712942
vn -0.627476 0.362273 0.689226
vn -0.712343 0.125605 0.690501
vn -0.704515 -0.085545 0.704515
vn -0.704515 -0.085540 0.704515
vn -0.704515 0.085545 0.704515
vn -0.704515 0.085540 0.704515
vn -0.671582 -0.254697 0.695778
vn -0.655655 -0.248659 0.712942
vn -0.682279 -0.120304 0.721126
vn -0.712343 -0.125605 0.690501
vn -0.586872 -0.405088 0.701060
vn -0.467801 -0.528038 0.708758
vn -0.581268 -0.401219 0.707920
vn -0.473438 -0.534402 0.700194
vn -0.598117 -0.345323 0.723193
vn -0.627476 -0.362273 0.689226
vn -0.333390 -0.635221 0.696668
vn -0.326266 -0.621648 0.712112
vn -0.463778 -0.552710 0.692403
vn -0.447413 -0.533207 0.717991
vn -0.171271 -0.694878 0.698435
vn -0.235846 -0.647983 0.724220
vn -0.248017 -0.681423 0.688585
vn -0.168418 -0.683305 0.710444
vn 0.000000 -0.700406 0.713745
vn 0.171271 -0.694878 0.698435
vn 0.000000 -0.719094 0.694913
vn 0.168418 -0.683305 0.710444
vn 0.000000 -0.700406 0.713745
vn 0.000000 -0.719094 0.694913
vn 0.235846 -0.647983 0.724220
vn 0.333390 -0.635221 0.696668
vn 0.248017 -0.681423 0.688585
vn 0.326266 -0.621648 0.712112
vn 0.467801 -0.528038 0.708758
vn 0.586872 -0.405088 0.701060
vn 0.473438 -0.534402 0.700194
vn 0.581268 -0.401219 0.707920
vn 0.447413 -0.533207 0.717991
vn 0.463778 -0.552710 0.692403
vn 0.671582 -0.254697 0.695778
vn 0.655655 -0.248659 0.712942
vn 0.627476 -0.362273 0.689226
vn 0.598117 -0.345323 0.723193
vn 0.704515 -0.085545 0.704515
vn 0.704515 0.085545 0.704515
vn 0.704515 -0.085540 0.704515
vn 0.704515 0.085540 0.704515
vn 0.682279 -0.120304 0.721126
vn 0.712343 -0.125605 0.690501
vn 0.671582 0.254697 0.695778
vn 0.655655 0.248659 0.712942
vn 0.682279 0.120304 0.721126
vn 0.712343 0.125605 0.690501
vn 0.586872 0.405088 0.701060
vn 0.467801 0.528038 0.708758
vn 0.627476 0.362273 0.689226
vn 0.581268 0.401219 0.707920
vn 0.473438 0.534402 0.700194
vn 0.598117 0.345323 0.723193
vn 0.333390 0.635221 0.696668
vn 0.326266 0.621648 0.712112
vn 0.447413 0.533207 0.717991
vn 0.463778 0.552710 0.692403
vn 0.235846 0.647983 0.724220
vn 0.171271 0.694878 0.698435
vn 0.248017 0.681423 0.688585
vn 0.168418 0.683305 0.710444
vn 0.000000 0.719094 0.694913
vn 0.000000 0.700406 0.713745
vn -0.171271 0.694878 0.698435
vn 0.000000 0.719094 0.694913
vn -0.168418 0.683305 0.710444
vn 0.000000 0.700406 0.713745
vn -0.333390 0.635221 0.696668
vn -0.248017 0.681423 0.688585
vn -0.326266 0.621648 0.712112
vn -0.235846 0.647983 0.724220
vn -0.447413 0.533207 0.717991
vn -0.467801 0.528038 0.708758
vn -0.586872 0.405088 0.701060
vn -0.473438 0.534402 0.700194
vn -0.581268 0.401219 0.707920
vn -0.463778 0.552710 0.692403
vn -0.671582 0.254697 0.695778
vn -0.598117 0.345323 0.723193
vn -0.682279 0.120304 0.721126
vn -0.655655 0.248659 0.712942
vn -0.627476 0.362273 0.689226
vn -0.712343 0.125605 0.690501
vn -0.704515 -0.085545 0.704515
vn -0.704515 -0.085540 0.704515
vn -0.704515 0.085545 0.704515
vn -0.704515 0.085540 0.704515
vn -0.671582 -0.254697 0.695778
vn -0.655655 -0.248659 0.712942
vn -0.682279 -0.120304 0.721126
vn -0.712343 -0.125605 0.690501
vn -0.586872 -0.405088 0.701060
vn -0.467801 -0.528038 0.708758
vn -0.581268 -0.401219 0.707920
vn -0.473438 -0.534402 0.700194
vn -0.598117 -0.345323 0.723193
vn -0.627476 -0.362273 0.689226
vn -0.333390 -0.635221 0.696668
vn -0.326266 -0.621648 0.712112
vn -0.463778 -0.552710 0.692403
vn -0.447413 -0.533207 0.717991
vn -0.171271 -0.694878 0.698435
vn -0.235846 -0.647983 0.724220
vn -0.248017 -0.681423 0.688585
vn -0.168418 -0.683305 0.710444
vn 0.000000 -0.700406 0.713745
vn 0.171271 -0.694878 0.698435
vn 0.000000 -0.719094 0.694913
vn 0.168418 -0.683305 0.710444
vn 0.000000 -0.700406 0.713745
vn 0.000000 -0.719094 0.694913
vn 0.235846 -0.647983 0.724220
vn 0.333390 -0.635221 0.696668
vn 0.248017 -0.681423 0.688585
vn 0.326266 -0.621648 0.712112
vn 0.467801 -0.528038 0.708758
vn 0.586872 -0.405088 0.701060
vn 0.473438 -0.534402 0.700194
vn 0.581268 -0.401219 0.707920
vn 0.447413 -0.533207 0.717991
vn 0.463778 -0.552710 0.692403
vn 0.671582 -0.254697 0.695778
vn 0.655655 -0.248659 0.712942
vn 0.627476 -0.362273 0.689226
vn 0.598117 -0.345323 0.723193
vn 0.704515 -0.085545 0.704515
vn 0.704515 0.085545 0.704515
vn 0.704515 -0.085540 0.704515
vn 0.704515 0.085540 0.704515
vn 0.682279 -0.120304 0.721126
vn 0.712343 -0.125605 0.690501
vn 0.671582 0.254697 0.695778
vn 0.655655 0.248659 0.712942
vn 0.682279 0.120304 0.721126
vn 0.712343 0.125605 0.690501
vn 0.586872 0.405088 0.701060
vn 0.467801 0.528038 0.708758
vn 0.627476 0.362273 0.689226
vn 0.581268 0.401219 0.707920
vn 0.473438 0.534402 0.700194
vn 0.598117 0.345323 0.723193
vn 0.333390 0.635221 0.696668
vn 0.326266 0.621648 0.712112
vn 0.447413 0.533207 0.717991
vn 0.463778 0.552710 0.692403
vn 0.235846 0.647983 0.724220
vn 0.171271 0.694878 0.698435
vn 0.248017 0.681423 0.688585
vn 0.168418 0.683305 0.710444
vn 0.000000 0.719094 0.694913
vn 0.000000 0.700406 0.713745
vn -0.171271 0.694878 0.698435
vn 0.000000 0.719094 0.694913
vn -0.168418 0.683305 0.710444
vn 0.000000 0.700406 0.713745
vn -0.333390 0.635221 0.696668
vn -0.248017 0.681423 0.688585
vn -0.326266 0.621648 0.712112
vn -0.235846 0.647983 0.724220
vn -0.447413 0.533207 0.717991
vn -0.467801 0.528038 0.708758
vn -0.586872 0.405088 0.701060
vn -0.473438 0.534402 0.700194
vn -0.581268 0.401219 0.707920
vn -0.463778 0.552710 0.692403
vn -0.671582 0.254697 0.695778
vn -0.598117 0.345323 0.723193
vn -0.682279 0.120304 0.721126
vn -0.655655 0.248659 0.712942
vn -0.627476 0.362273 0.689226
vn -0.712343 0.125605 0.690501
vn -0.992709 -0.120532 0.000000
vn -0.992709 -0.120532 0.000000
vn -0.935015 -0.354607 0.000000
vn -0.935015 -0.354607 0.000000
vn -0.822985 -0.568064 0.000000
vn -0.822985 -0.568064 0.000000
vn -0.663122 -0.748512 0.000000
vn -0.663122 -0.748512 0.000000
vn -0.464723 -0.885456 0.000000
vn -0.239313 -0.970942 0.000000
vn -0.464723 -0.885456 0.000000
vn -0.239313 -0.970942 0.000000
vn 0.000000 -1.000000 0.000000
vn 0.000000 -1.000000 0.000000
vn 0.239313 -0.970942 0.000000
vn 0.239313 -0.970942 0.000000
vn 0.464723 -0.885456 0.000000
vn 0.464723 -0.885456 0.000000
vn 0.663122 -0.748512 0.000000
vn 0.663122 -0.748512 0.000000
vn 0.822985 -0.568064 0.000000
vn 0.822985 -0.568064 0.000000
vn 0.935015 -0.354607 0.000000
vn 0.935015 -0.354607 0.000000
vn 0.992709 -0.120532 0.000000
vn 0.992709 -0.120532 0.000000
vn 0.992709 0.120532 -0.000000
vn 0.992709 0.120532 -0.000000
vn 0.935015 0.354607 0.000000
vn 0.935015 0.354607 -0.000000
vn 0.822985 0.568064 -0.000000
vn 0.663122 0.748512 -0.000000
vn 0.822985 0.568064 0.000000
vn 0.663122 0.748512 -0.000000
vn 0.464723 0.885456 -0.000000
vn 0.464723 0.885456 0.000000
vn 0.239313 0.970942 -0.000000
vn 0.000000 1.000000 0.000000
vn 0.239313 0.970942 0.000000
vn -0.239313 0.970942 0.000000
vn 0.000000 1.000000 -0.000000
vn -0.239313 0.970942 0.000000
vn -0.464723 0.885456 0.000000
vn -0.464723 0.885456 0.000000
vn -0.663122 0.748512 0.000000
vn -0.663122 0.748512 0.000000
vn -0.822985 0.568064 0.000000
vn -0.822985 0.568064 0.000000
vn -0.935015 0.354607 0.000000
vn -0.935015 0.354607 0.000000
vn -0.992709 0.120532 0.000000
vn -0.992709 0.120532 0.000000
vn 0.000000 0.000000 -1.000000
vn 0.000000 0.000000 -1.000000
vn 0.000000 0.000000 -1.000000
vn 0.000000 -0.000000 -1.000000
vn 0.000000 0.000000 -1.000000
vn 0.000000 0.000000 -1.000000
vn 0.000000 0.000000 -1.000000
vn 0.000000 -0.000000 -1.000000
vn 0.000000 0.000000 -1.000000
vn 0.000000 0.000000 -1.000000
vn 0.000000 0.000000 -1.000000
vn 0.000000 -0.000000 -1.000000
vn 0.000000 0.000000 -1.000000
vn 0.000000 0.000000 -1.000000
vn 0.000000 0.000000 -1.000000
vn 0.000000 0.000000 -1.000000
vn 0.000000 -0.000000 -1.000000
vn 0.000000 0.000000 -1.000000
vn 0.000000 -0.000000 -1.000000
vn 0.000000 0.000000 -1.000000
vn 0.000000 -0.000000 -1.000000
vn 0.000000 0.000000 -1.000000
vn 0.000000 -0.000000 -1.000000
vn 0.000000 0.000000 -1.000000
vn 0.000000 0.000000 -1.000000
vn -0.000000 -0.000000 -1.000000
vn 0.000000 0.000000 -1.000000
vn 0.000000 0.000000 -1.000000
vn -0.000000 -0.000000 -1.000000
vn 0.000000 0.000000 -1.000000
vn 0.000000 0.000000 -1.000000
vn 0.000000 0.000000 -1.000000
vn 0.000000 0.000000 -1.000000
vn 0.000000 -0.000000 -1.000000
vn 0.000000 0.000000 -1.000000
vn 0.000000 0.000000 -1.000000
vn 0.000000 -0.000000 -1.000000
vn 0.000000 0.000000 -1.000000
vn 0.000000 0.000000 -1.000000
vn 0.000000 0.000000 -1.000000
vn 0.000000 0.000000 -1.000000
vn 0.000000 0.000000 -1.000000
vn 0.000000 -0.000000 -1.000000
vn 0.000000 0.000000 -1.000000
vn 0.000000 0.000000 -1.000000
vn 0.000000 0.000000 -1.000000
vn 0.000000 0.000000 -1.000000
vn 0.000000 0.000000 -1.000000
vn 0.000000 0.000000 -1.000000
vn 0.000000 0.000000 -1.000000
vn 0.000000 0.000000 -1.000000
vn 0.000000 0.000000 -1.000000
vn 0.000000 0.000000 -1.000000
vn 0.000000 0.000000 -1.000000
vn 0.000000 0.000000 -1.000000
vn 0.000000 0.000000 -1.000000
vn 0.000000 0.000000 -1.000000
vn 0.000000 0.000000 -1.000000
vn 0.000000 0.000000 -1.000000
vn 0.000000 0.000000 -1.000000
vn 0.000000 0.000000 -1.000000
vn 0.000000 0.000000 -1.000000
vn 0.000000 0.000000 -1.000000
vn 0.000000 0.000000 -1.000000
vn 0.000000 0.000000 -1.000000
vn 0.000000 -0.000000 -1.000000
vn 0.000000 0.000000 -1.000000
vn 0.000000 -0.000000 -1.000000
vn 0.000000 0.000000 -1.000000
vn 0.000000 0.000000 -1.000000
vn 0.000000 -0.000000 -1.000000
vn 0.000000 0.000000 -1.000000
vn 0.000000 0.000000 -1.000000
vn 0.000000 0.000000 -1.000000
vn 0.000000 0.000000 -1.000000
vn 0.000000 0.000000 -1.000000
vn 0.000000 0.000000 -1.000000
vn 0.000000 0.000000 -1.000000
vn 0.000000 0.000000 -1.000000
vn 0.000000 0.000000 -1.000000
vn 0.000000 0.000000 -1.000000
vn 0.000000 0.000000 -1.000000
vn 0.000000 0.000000 -1.000000
vn 0.000000 0.000000 -1.000000
vn 0.000000 0.000000 -1.000000
vn 0.000000 -0.000000 -1.000000
vn 0.000000 0.000000 -1.000000
vn 0.000000 -0.000000 -1.000000
vn 0.000000 0.000000 -1.000000
vn 0.000000 -0.000000 -1.000000
vn 0.000000 0.000000 -1.000000
vn 0.000000 0.000000 -1.000000
vn 0.000000 0.000000 -1.000000
vn 0.000000 0.000000 -1.000000
vn 0.000000 0.000000 -1.000000
vn 0.000000 0.000000 -1.000000
vn 0.000000 0.000000 -1.000000
vn 0.000000 0.000000 -1.000000
vn 0.000000 0.000000 -1.000000
vn 0.000000 -0.000000 -1.000000
vn 0.000000 0.000000 -1.000000
vn 0.000000 0.000000 -1.000000
vn 0.000000 0.000000 -1.000000
vn 0.000000 0.000000 -1.000000
vn 0.000000 0.000000 -1.000000
vn 0.000000 0.000000 -1.000000
vn 0.000000 0.000000 -1.000000
vn 0.000000 0.000000 -1.000000
vn 0.000000 0.000000 -1.000000
vn 0.000000 0.000000 -1.000000
vn 0.000000 -0.000000 -1.000000
vn 0.000000 0.000000 -1.000000
vn 0.000000 0.000000 -1.000000
vn 0.000000 0.000000 -1.000000
vn 0.000000 0.000000 -1.000000
vn 0.000000 0.000000 -1.000000
vn 0.000000 0.000000 -1.000000
vn 0.000000 0.000000 -1.000000
vn 0.000000 0.000000 -1.000000
vn 0.000000 -0.000000 -1.000000
vn 0.000000 -0.000000 -1.000000
vn 0.000000 -0.000000 -1.000000
vn 0.000000 -0.000000 -1.000000
vn 0.000000 -0.000000 -1.000000
vn 0.000000 0.000000 -1.000000
vn 0.000000 0.000000 -1.000000
vn 0.000000 0.000000 -1.000000
vn 0.000000 0.000000 -1.000000
vn 0.000000 0.000000 -1.000000
vn 0.000000 0.000000 -1.000000
vn 0.000000 0.000000 -1.000000
vn 0.000000 0.000000 -1.000000
vn 0.000000 0.000000 -1.000000
vn 0.000000 0.000000 -1.000000
vn 0.000000 0.000000 -1.000000
vn 0.000000 0.000000 -1.000000
vn 0.000000 0.000000 -1.000000
vn 0.000000 0.000000 -1.000000
vn 0.000000 0.000000 -1.000000
vn 0.000000 -0.000000 -1.000000
vn 0.000000 0.000000 -1.000000
vn 0.000000 0.000000 -1.000000
vn 0.000000 -0.000000 -1.000000
vn 0.000000 -0.000000 -1.000000
vn 0.000000 0.000000 -1.000000
vn 0.000000 0.000000 -1.000000
vn -0.992709 -0.120532 0.000000
vn -0.992709 -0.120532 0.000000
vn -0.935015 -0.354607 0.000000
vn -0.935015 -0.354607 0.000000
vn -0.822985 -0.568064 0.000000
vn -0.822985 -0.568064 0.000000
vn -0.663122 -0.748512 0.000000
vn -0.663122 -0.748512 0.000000
vn -0.464723 -0.885456 0.000000
vn -0.239313 -0.970942 0.000000
vn -0.464723 -0.885456 0.000000
vn -0.239313 -0.970942 0.000000
vn 0.000000 -1.000000 0.000000
vn 0.000000 -1.000000 0.000000
vn 0.239313 -0.970942 0.000000
vn 0.239313 -0.970942 0.000000
vn 0.464723 -0.885456 0.000000
vn 0.464723 -0.885456 0.000000
vn 0.663122 -0.748512 0.000000
vn 0.663122 -0.748512 0.000000
vn 0.822985 -0.568064 0.000000
vn 0.822985 -0.568064 0.000000
vn 0.935015 -0.354607 0.000000
vn 0.935015 -0.354607 0.000000
vn 0.992709 -0.120532 0.000000
vn 0.992709 -0.120532 0.000000
vn 0.992709 0.120532 -0.000000
vn 0.992709 0.120532 -0.000000
vn 0.935015 0.354607 0.000000
vn 0.935015 0.354607 -0.000000
vn 0.822985 0.568064 -0.000000
vn 0.663122 0.748512 -0.000000
vn 0.822985 0.568064 0.000000
vn 0.663122 0.748512 -0.000000
vn 0.464723 0.885456 -0.000000
vn 0.464723 0.885456 0.000000
vn 0.239313 0.970942 -0.000000
vn 0.000000 1.000000 0.000000
vn 0.239313 0.970942 0.000000
vn -0.239313 0.970942 0.000000
vn 0.000000 1.000000 -0.000000
vn -0.239313 0.970942 0.000000
vn -0.464723 0.885456 0.000000
vn -0.464723 0.885456 0.000000
vn -0.663122 0.748512 0.000000
vn -0.663122 0.748512 0.000000
vn -0.822985 0.568064 0.000000
vn -0.822985 0.568064 0.000000
vn -0.935015 0.354607 0.000000
vn -0.935015 0.354607 0.000000
vn -0.992709 0.120532 0.000000
vn -0.992709 0.120532 0.000000
vn -0.992709 -0.120532 0.000000
vn -0.992709 -0.120532 0.000000
vn -0.935015 -0.354607 0.000000
vn -0.935015 -0.354607 0.000000
vn -0.822985 -0.568064 0.000000
vn -0.822985 -0.568064 0.000000
vn -0.663122 -0.748512 0.000000
vn -0.663122 -0.748512 0.000000
vn -0.464723 -0.885456 0.000000
vn -0.239313 -0.970942 0.000000
vn -0.464723 -0.885456 0.000000
vn -0.239313 -0.970942 0.000000
vn 0.000000 -1.000000 0.000000
vn 0.000000 -1.000000 0.000000
vn 0.239313 -0.970942 0.000000
vn 0.239313 -0.970942 0.000000
vn 0.464723 -0.885456 0.000000
vn 0.464723 -0.885456 0.000000
vn 0.663122 -0.748512 0.000000
vn 0.663122 -0.748512 0.000000
vn 0.822985 -0.568064 0.000000
vn 0.822985 -0.568064 0.000000
vn 0.935015 -0.354607 0.000000
vn 0.935015 -0.354607 0.000000
vn 0.992709 -0.120532 0.000000
vn 0.992709 -0.120532 0.000000
vn 0.992709 0.120532 -0.000000
vn 0.992709 0.120532 -0.000000
vn 0.935015 0.354607 0.000000
vn 0.935015 0.354607 -0.000000
vn 0.822985 0.568064 -0.000000
vn 0.663122 0.748512 -0.000000
vn 0.822985 0.568064 0.000000
vn 0.663122 0.748512 -0.000000
vn 0.464723 0.885456 -0.000000
vn 0.464723 0.885456 0.000000
vn 0.239313 0.970942 -0.000000
vn 0.000000 1.000000 0.000000
vn 0.239313 0.970942 0.000000
vn -0.239313 0.970942 0.000000
vn 0.000000 1.000000 -0.000000
vn -0.239313 0.970942 0.000000
vn -0.464723 0.885456 0.000000
vn -0.464723 0.885456 0.000000
vn -0.663122 0.748512 0.000000
vn -0.663122 0.748512 0.000000
vn -0.822985 0.568064 0.000000
vn -0.822985 0.568064 0.000000
vn -0.935015 0.354607 0.000000
vn -0.935015 0.354607 0.000000
vn -0.992709 0.120532 0.000000
vn -0.992709 0.120532 0.000000
vn -0.992709 -0.120532 0.000000
vn -0.992709 -0.120532 0.000000
vn -0.935015 -0.354607 0.000000
vn -0.935015 -0.354607 0.000000
vn -0.822985 -0.568064 0.000000
vn -0.822985 -0.568064 0.000000
vn -0.663122 -0.748512 0.000000
vn -0.663122 -0.748512 0.000000
vn -0.464723 -0.885456 0.000000
vn -0.239313 -0.970942 0.000000
vn -0.464723 -0.885456 0.000000
vn -0.239313 -0.970942 0.000000
vn 0.000000 -1.000000 0.000000
vn 0.000000 -1.000000 0.000000
vn 0.239313 -0.970942 0.000000
vn 0.239313 -0.970942 0.000000
vn 0.464723 -0.885456 0.000000
vn 0.464723 -0.885456 0.000000
vn 0.663122 -0.748512 0.000000
vn 0.663122 -0.748512 0.000000
vn 0.822985 -0.568064 0.000000
vn 0.822985 -0.568064 0.000000
vn 0.935015 -0.354607 0.000000
vn 0.935015 -0.354607 0.000000
vn 0.992709 -0.120532 0.000000
vn 0.992709 -0.120532 0.000000
vn 0.992709 0.120532 -0.000000
vn 0.992709 0.120532 -0.000000
vn 0.935015 0.354607 0.000000
vn 0.935015 0.354607 -0.000000
vn 0.822985 0.568064 -0.000000
vn 0.663122 0.748512 -0.000000
vn 0.822985 0.568064 0.000000
vn 0.663122 0.748512 -0.000000
vn 0.464723 0.885456 -0.000000
vn 0.464723 0.885456 0.000000
vn 0.239313 0.970942 -0.000000
vn 0.000000 1.000000 0.000000
vn 0.239313 0.970942 0.000000
vn -0.239313 0.970942 0.000000
vn 0.000000 1.000000 -0.000000
vn -0.239313 0.970942 0.000000
vn -0.464723 0.885456 0.000000
vn -0.464723 0.885456 0.000000
vn -0.663122 0.748512 0.000000
vn -0.663122 0.748512 0.000000
vn -0.822985 0.568064 0.000000
vn -0.822985 0.568064 0.000000
vn -0.935015 0.354607 0.000000
vn -0.935015 0.354607 0.000000
vn -0.992709 0.120532 0.000000
vn -0.992709 0.120532 0.000000
f 1//1 2//1 3//1
f 4//2 3//2 5//2
f 4//3 5//3 6//3
f 4//4 1//4 3//4
f 7//5 8//5 2//5
f 7//6 2//6 1//6
f 9//7 6//7 10//7
f 9//8 4//8 6//8
f 11//9 12//9 8//9
f 11//10 8//10 7//10
f 13//11 10//11 14//11
f 13//12 9//12 10//12
f 15//13 16//13 12//13
f 15//14 12//14 11//14
f 17//15 13//15 14//15
f 18//16 16//16 15//16
f 19//17 17//17 14//17
f 20//18 16//18 18//18
f 21//19 19//19 14//19
f 22//20 16//20 20//20
f 23//21 21//21 14//21
f 24//22 16//22 22//22
f 25//23 24//23 22//23
f 26//24 25//24 22//24
f 26//25 22//25 27//25
f 28//26 24//26 25//26
f 29//27 26//27 27//27
f 29//28 27//28 30//28
f 31//29 24//29 28//29
f 32//30 30//30 33//30
f 32//31 29//31 30//31
f 34//32 24//32 31//32
f 34//33 35//33 24//33
f 36//34 33//34 37//34
f 36//35 32//35 33//35
f 38//36 39//36 35//36
f 38//37 35//37 34//37
f 40//38 37//38 41//38
f 40//39 36//39 37//39
f 42//40 39//40 38//40
f 42//41 43//41 39//41
f 44//42 41//42 45//42
f 44//43 40//43 41//43
f 46//44 43//44 42//44
f 47//45 43//45 46//45
f 48//46 45//46 49//46
f 48//47 44//47 45//47
f 50//48 47//48 46//48
f 51//49 49//49 52//49
f 51//50 48//50 49//50
f 53//51 47//51 50//51
f 54//52 53//52 50//52
f 54//53 50//53 55//53
f 56//54 54//54 55//54
f 56//55 55//55 57//55
f 58//56 56//56 57//56
f 58//57 59//57 60//57
f 58//58 61//58 59//58
f 58//59 62//59 61//59
f 58//60 57//60 62//60
f 63//61 14//61 64//61
f 63//62 65//62 23//62
f 63//63 23//63 14//63
f 66//64 63//64 64//64
f 67//65 68//65 65//65
f 67//66 65//66 63//66
f 69//67 66//67 64//67
f 70//68 68//68 67//68
f 71//69 69//69 64//69
f 72//70 73//70 68//70
f 72//71 68//71 70//71
f 74//72 64//72 75//72
f 74//73 71//73 64//73
f 76//74 77//74 73//74
f 76//75 73//75 72//75
f 78//76 75//76 79//76
f 78//77 74//77 75//77
f 80//78 52//78 77//78
f 80//79 77//79 76//79
f 81//80 78//80 79//80
f 81//81 79//81 82//81
f 83//82 81//82 82//82
f 84//83 81//83 83//83
f 85//84 84//84 83//84
f 85//85 86//85 84//85
f 87//86 86//86 85//86
f 87//87 88//87 86//87
f 89//88 88//88 87//88
f 89//89 90//89 88//89
f 91//90 92//90 90//90
f 91//91 93//91 92//91
f 91//92 94//92 93//92
f 91//93 90//93 89//93
f 95//94 80//94 96//94
f 97//95 95//95 96//95
f 97//96 96//96 98//96
f 99//97 52//97 80//97
f 99//98 100//98 51//98
f 99//99 51//99 52//99
f 99//100 80//100 95//100
f 101//101 98//101 102//101
f 101//102 97//102 98//102
f 103//103 100//103 99//103
f 104//104 102//104 105//104
f 104//105 101//105 102//105
f 106//106 107//106 100//106
f 106//107 100//107 103//107
f 108//108 104//108 105//108
f 108//109 105//109 109//109
f 110//110 107//110 106//110
f 110//111 111//111 107//111
f 112//112 108//112 109//112
f 112//113 109//113 113//113
f 114//114 111//114 110//114
f 114//115 115//115 111//115
f 114//116 60//116 115//116
f 116//117 113//117 117//117
f 116//118 112//118 113//118
f 118//119 60//119 114//119
f 119//120 116//120 117//120
f 119//121 117//121 94//121
f 119//122 94//122 91//122
f 120//123 119//123 91//123
f 120//124 121//124 119//124
f 120//125 122//125 121//125
f 120//126 123//126 122//126
f 124//127 58//127 60//127
f 124//128 60//128 118//128
f 124//129 125//129 126//129
f 124//130 127//130 125//130
f 124//131 128//131 127//131
f 124//132 118//132 128//132
f 129//133 130//133 123//133
f 129//134 123//134 120//134
f 131//135 126//135 132//135
f 131//136 124//136 126//136
f 133//137 134//137 130//137
f 133//138 130//138 129//138
f 135//139 131//139 132//139
f 135//140 132//140 136//140
f 137//141 138//141 134//141
f 137//142 134//142 133//142
f 139//143 135//143 136//143
f 140//144 139//144 136//144
f 140//145 138//145 137//145
f 140//146 136//146 138//146
f 141//147 90//147 92//147
f 142//148 143//148 141//148
f 141//149 88//149 90//149
f 143//150 144//150 141//150
f 145//151 92//151 93//151
f 145//152 146//152 142//152
f 145//153 141//153 92//153
f 145//154 142//154 141//154
f 147//155 93//155 94//155
f 147//156 94//156 117//156
f 147//157 148//157 146//157
f 147//158 149//158 148//158
f 147//159 145//159 93//159
f 147//160 146//160 145//160
f 150//161 117//161 113//161
f 150//162 151//162 149//162
f 150//163 149//163 147//163
f 150//164 147//164 117//164
f 152//165 113//165 109//165
f 152//166 150//166 113//166
f 152//167 151//167 150//167
f 152//168 153//168 151//168
f 154//169 109//169 105//169
f 154//170 105//170 102//170
f 154//171 155//171 153//171
f 154//172 156//172 155//172
f 154//173 152//173 109//173
f 154//174 153//174 152//174
f 157//175 154//175 102//175
f 157//176 102//176 98//176
f 157//177 156//177 154//177
f 157//178 158//178 156//178
f 159//179 98//179 96//179
f 159//180 96//180 80//180
f 159//181 160//181 158//181
f 159//182 161//182 160//182
f 159//183 157//183 98//183
f 159//184 158//184 157//184
f 162//185 80//185 76//185
f 162//186 163//186 161//186
f 162//187 161//187 159//187
f 162//188 159//188 80//188
f 164//189 76//189 72//189
f 164//190 72//190 70//190
f 164//191 165//191 163//191
f 164//192 166//192 165//192
f 164//193 162//193 76//193
f 164//194 163//194 162//194
f 167//195 70//195 67//195
f 167//196 168//196 166//196
f 167//197 164//197 70//197
f 167//198 166//198 164//198
f 169//199 67//199 63//199
f 169//200 63//200 66//200
f 169//201 168//201 167//201
f 169//202 170//202 168//202
f 169//203 171//203 170//203
f 169//204 167//204 67//204
f 172//205 66//205 69//205
f 172//206 173//206 171//206
f 172//207 169//207 66//207
f 172//208 171//208 169//208
f 174//209 172//209 69//209
f 174//210 69//210 71//210
f 174//211 173//211 172//211
f 174//212 175//212 173//212
f 176//213 175//213 174//213
f 176//214 71//214 74//214
f 176//215 74//215 78//215
f 176//216 177//216 175//216
f 176//217 178//217 177//217
f 176//218 174//218 71//218
f 179//219 78//219 81//219
f 179//220 178//220 176//220
f 179//221 180//221 178//221
f 179//222 176//222 78//222
f 181//223 179//223 81//223
f 181//224 81//224 84//224
f 181//225 84//225 86//225
f 181//226 182//226 180//226
f 181//227 183//227 182//227
f 181//228 180//228 179//228
f 184//229 86//229 88//229
f 184//230 181//230 86//230
f 184//231 88//231 141//231
f 184//232 144//232 183//232
f 184//233 183//233 181//233
f 184//234 141//234 144//234
f 185//235 186//235 24//235
f 24//236 186//236 16//236
f 185//237 35//237 187//237
f 24//238 35//238 185//238
f 187//239 39//239 188//239
f 35//240 39//240 187//240
f 188//241 43//241 189//241
f 39//242 43//242 188//242
f 189//243 47//243 190//243
f 43//244 47//244 189//244
f 190//245 53//245 191//245
f 191//246 53//246 192//246
f 47//247 53//247 190//247
f 53//248 54//248 192//248
f 192//249 56//249 193//249
f 54//250 56//250 192//250
f 193//251 58//251 194//251
f 56//252 58//252 193//252
f 12//253 186//253 195//253
f 12//254 16//254 186//254
f 8//255 195//255 196//255
f 8//256 12//256 195//256
f 2//257 196//257 197//257
f 2//258 8//258 196//258
f 3//259 197//259 198//259
f 3//260 2//260 197//260
f 5//261 198//261 199//261
f 5//262 3//262 198//262
f 6//263 199//263 200//263
f 6//264 5//264 199//264
f 10//265 200//265 201//265
f 10//266 201//266 202//266
f 10//267 6//267 200//267
f 14//268 10//268 202//268
f 203//269 194//269 124//269
f 124//270 194//270 58//270
f 202//271 204//271 14//271
f 14//272 204//272 64//272
f 129//273 205//273 206//273
f 129//274 120//274 205//274
f 133//275 206//275 207//275
f 133//276 129//276 206//276
f 137//277 207//277 208//277
f 137//278 133//278 207//278
f 140//279 208//279 209//279
f 140//280 137//280 208//280
f 139//281 209//281 210//281
f 139//282 210//282 211//282
f 139//283 140//283 209//283
f 135//284 139//284 211//284
f 131//285 211//285 212//285
f 131//286 135//286 211//286
f 124//287 212//287 203//287
f 124//288 131//288 212//288
f 75//289 204//289 213//289
f 75//290 64//290 204//290
f 79//291 213//291 214//291
f 79//292 75//292 213//292
f 82//293 214//293 215//293
f 82//294 215//294 216//294
f 82//295 79//295 214//295
f 83//296 82//296 216//296
f 85//297 216//297 217//297
f 85//298 83//298 216//298
f 87//299 217//299 218//299
f 87//300 85//300 217//300
f 89//301 218//301 219//301
f 89//302 219//302 220//302
f 89//303 87//303 218//303
f 91//304 89//304 220//304
f 220//305 205//305 91//305
f 91//306 205//306 120//306
f 221//307 123//307 130//307
f 222//308 223//308 221//308
f 221//309 122//309 123//309
f 223//310 224//310 221//310
f 225//311 130//311 134//311
f 225//312 226//312 222//312
f 225//313 221//313 130//313
f 225//314 222//314 221//314
f 227//315 134//315 138//315
f 227//316 138//316 136//316
f 227//317 228//317 226//317
f 227//318 229//318 228//318
f 227//319 225//319 134//319
f 227//320 226//320 225//320
f 230//321 136//321 132//321
f 230//322 231//322 229//322
f 230//323 229//323 227//323
f 230//324 227//324 136//324
f 232//325 132//325 126//325
f 232//326 230//326 132//326
f 232//327 231//327 230//327
f 232//328 233//328 231//328
f 234//329 126//329 125//329
f 234//330 125//330 127//330
f 234//331 235//331 233//331
f 234//332 236//332 235//332
f 234//333 232//333 126//333
f 234//334 233//334 232//334
f 237//335 234//335 127//335
f 237//336 127//336 128//336
f 237//337 236//337 234//337
f 237//338 238//338 236//338
f 239//339 128//339 118//339
f 239//340 118//340 114//340
f 239//341 240//341 238//341
f 239//342 241//342 240//342
f 239//343 237//343 128//343
f 239//344 238//344 237//344
f 242//345 114//345 110//345
f 242//346 243//346 241//346
f 242//347 241//347 239//347
f 242//348 239//348 114//348
f 244//349 110//349 106//349
f 244//350 106//350 103//350
f 244//351 245//351 243//351
f 244//352 246//352 245//352
f 244//353 242//353 110//353
f 244//354 243//354 242//354
f 247//355 103//355 99//355
f 247//356 248//356 246//356
f 247//357 244//357 103//357
f 247//358 246//358 244//358
f 249//359 99//359 95//359
f 249//360 95//360 97//360
f 249//361 248//361 247//361
f 249//362 250//362 248//362
f 249//363 251//363 250//363
f 249//364 247//364 99//364
f 252//365 97//365 101//365
f 252//366 253//366 251//366
f 252//367 249//367 97//367
f 252//368 251//368 249//368
f 254//369 252//369 101//369
f 254//370 101//370 104//370
f 254//371 253//371 252//371
f 254//372 255//372 253//372
f 256//373 255//373 254//373
f 256//374 104//374 108//374
f 256//375 108//375 112//375
f 256//376 257//376 255//376
f 256//377 258//377 257//377
f 256//378 254//378 104//378
f 259//379 112//379 116//379
f 259//380 258//380 256//380
f 259//381 260//381 258//381
f 259//382 256//382 112//382
f 261//383 259//383 116//383
f 261//384 116//384 119//384
f 261//385 119//385 121//385
f 261//386 262//386 260//386
f 261//387 263//387 262//387
f 261//388 260//388 259//388
f 264//389 121//389 122//389
f 264//390 261//390 121//390
f 264//391 122//391 221//391
f 264//392 224//392 263//392
f 264//393 263//393 261//393
f 264//394 221//394 224//394
f 265//395 107//395 111//395
f 266//396 267//396 265//396
f 265//397 100//397 107//397
f 267//398 268//398 265//398
f 269//399 111//399 115//399
f 269//400 270//400 266//400
f 269//401 265//401 111//401
f 269//402 266//402 265//402
f 271//403 115//403 60//403
f 271//404 60//404 59//404
f 271//405 272//405 270//405
f 271//406 273//406 272//406
f 271//407 269//407 115//407
f 271//408 270//408 269//408
f 274//409 59//409 61//409
f 274//410 275//410 273//410
f 274//411 273//411 271//411
f 274//412 271//412 59//412
f 276//413 61//413 62//413
f 276//414 274//414 61//414
f 276//415 275//415 274//415
f 276//416 277//416 275//416
f 278//417 62//417 57//417
f 278//418 57//418 55//418
f 278//419 279//419 277//419
f 278//420 280//420 279//420
f 278//421 276//421 62//421
f 278//422 277//422 276//422
f 281//423 278//423 55//423
f 281//424 55//424 50//424
f 281//425 280//425 278//425
f 281//426 282//426 280//426
f 283//427 50//427 46//427
f 283//428 46//428 42//428
f 283//429 284//429 282//429
f 283//430 285//430 284//430
f 283//431 281//431 50//431
f 283//432 282//432 281//432
f 286//433 42//433 38//433
f 286//434 287//434 285//434
f 286//435 285//435 283//435
f 286//436 283//436 42//436
f 288//437 38//437 34//437
f 288//438 34//438 31//438
f 288//439 289//439 287//439
f 288//440 290//440 289//440
f 288//441 286//441 38//441
f 288//442 287//442 286//442
f 291//443 31//443 28//443
f 291//444 292//444 290//444
f 291//445 288//445 31//445
f 291//446 290//446 288//446
f 293//447 28//447 25//447
f 293//448 25//448 26//448
f 293//449 292//449 291//449
f 293//450 294//450 292//450
f 293//451 295//451 294//451
f 293//452 291//452 28//452
f 296//453 26//453 29//453
f 296//454 297//454 295//454
f 296//455 293//455 26//455
f 296//456 295//456 293//456
f 298//457 296//457 29//457
f 298//458 29//458 32//458
f 298//459 297//459 296//459
f 298//460 299//460 297//460
f 300//461 299//461 298//461
f 300//462 32//462 36//462
f 300//463 36//463 40//463
f 300//464 301//464 299//464
f 300//465 302//465 301//465
f 300//466 298//466 32//466
f 303//467 40//467 44//467
f 303//468 302//468 300//468
f 303//469 304//469 302//469
f 303//470 300//470 40//470
f 305//471 303//471 44//471
f 305//472 44//472 48//472
f 305//473 48//473 51//473
f 305//474 306//474 304//474
f 305//475 307//475 306//475
f 305//476 304//476 303//476
f 308//477 51//477 100//477
f 308//478 305//478 51//478
f 308//479 100//479 265//479
f 308//480 268//480 307//480
f 308//481 307//481 305//481
f 308//482 265//482 268//482
f 309//483 73//483 77//483
f 310//484 311//484 309//484
f 309//485 68//485 73//485
f 311//486 312//486 309//486
f 313//487 77//487 52//487
f 313//488 314//488 310//488
f 313//489 309//489 77//489
f 313//490 310//490 309//490
f 315//491 52//491 49//491
f 315//492 49//492 45//492
f 315//493 316//493 314//493
f 315//494 317//494 316//494
f 315//495 313//495 52//495
f 315//496 314//496 313//496
f 318//497 45//497 41//497
f 318//498 319//498 317//498
f 318//499 317//499 315//499
f 318//500 315//500 45//500
f 320//501 41//501 37//501
f 320//502 318//502 41//502
f 320//503 319//503 318//503
f 320//504 321//504 319//504
f 322//505 37//505 33//505
f 322//506 33//506 30//506
f 322//507 323//507 321//507
f 322//508 324//508 323//508
f 322//509 320//509 37//509
f 322//510 321//510 320//510
f 325//511 322//511 30//511
f 325//512 30//512 27//512
f 325//513 324//513 322//513
f 325//514 326//514 324//514
f 327//515 27//515 22//515
f 327//516 22//516 20//516
f 327//517 328//517 326//517
f 327//518 329//518 328//518
f 327//519 325//519 27//519
f 327//520 326//520 325//520
f 330//521 20//521 18//521
f 330//522 331//522 329//522
f 330//523 329//523 327//523
f 330//524 327//524 20//524
f 332//525 18//525 15//525
f 332//526 15//526 11//526
f 332//527 333//527 331//527
f 332//528 334//528 333//528
f 332//529 330//529 18//529
f 332//530 331//530 330//530
f 335//531 11//531 7//531
f 335//532 336//532 334//532
f 335//533 332//533 11//533
f 335//534 334//534 332//534
f 337//535 7//535 1//535
f 337//536 1//536 4//536
f 337//537 336//537 335//537
f 337//538 338//538 336//538
f 337//539 339//539 338//539
f 337//540 335//540 7//540
f 340//541 4//541 9//541
f 340//542 341//542 339//542
f 340//543 337//543 4//543
f 340//544 339//544 337//544
f 342//545 340//545 9//545
f 342//546 9//546 13//546
f 342//547 341//547 340//547
f 342//548 343//548 341//548
f 344//549 343//549 342//549
f 344//550 13//550 17//550
f 344//551 17//551 19//551
f 344//552 345//552 343//552
f 344//553 346//553 345//553
f 344//554 342//554 13//554
f 347//555 19//555 21//555
f 347//556 346//556 344//556
f 347//557 348//557 346//557
f 347//558 344//558 19//558
f 349//559 347//559 21//559
f 349//560 21//560 23//560
f 349//561 23//561 65//561
f 349//562 350//562 348//562
f 349//563 351//563 350//563
f 349//564 348//564 347//564
f 352//565 65//565 68//565
f 352//566 349//566 65//566
f 352//567 68//567 309//567
f 352//568 312//568 351//568
f 352//569 351//569 349//569
f 352//570 309//570 312//570
f 353//571 354//571 143//571
f 353//572 143//572 142//572
f 355//573 142//573 146//573
f 355//574 353//574 142//574
f 356//575 146//575 148//575
f 356//576 355//576 146//576
f 357//577 148//577 149//577
f 357//578 356//578 148//578
f 358//579 149//579 151//579
f 358//580 151//580 153//580
f 358//581 357//581 149//581
f 359//582 358//582 153//582
f 360//583 153//583 155//583
f 360//584 359//584 153//584
f 361//585 155//585 156//585
f 361//586 360//586 155//586
f 362//587 156//587 158//587
f 362//588 361//588 156//588
f 363//589 158//589 160//589
f 363//590 362//590 158//590
f 364//591 160//591 161//591
f 364//592 363//592 160//592
f 365//593 364//593 161//593
f 365//594 161//594 163//594
f 366//595 365//595 163//595
f 366//596 163//596 165//596
f 366//597 165//597 166//597
f 367//598 366//598 166//598
f 368//599 367//599 166//599
f 368//600 166//600 168//600
f 369//601 168//601 170//601
f 369//602 170//602 171//602
f 369//603 368//603 168//603
f 370//604 369//604 171//604
f 371//605 171//605 173//605
f 371//606 370//606 171//606
f 372//607 173//607 175//607
f 372//608 175//608 177//608
f 372//609 371//609 173//609
f 373//610 177//610 178//610
f 373//611 372//611 177//611
f 374//612 373//612 178//612
f 375//613 178//613 180//613
f 375//614 374//614 178//614
f 376//615 180//615 182//615
f 376//616 375//616 180//616
f 377//617 182//617 183//617
f 377//618 376//618 182//618
f 378//619 183//619 144//619
f 378//620 377//620 183//620
f 354//621 144//621 143//621
f 354//622 378//622 144//622
f 197//623 379//623 198//623
f 198//624 380//624 199//624
f 199//625 380//625 200//625
f 379//626 380//626 198//626
f 196//627 381//627 197//627
f 197//628 381//628 379//628
f 200//629 382//629 201//629
f 380//630 382//630 200//630
f 195//631 383//631 196//631
f 196//632 383//632 381//632
f 201//633 384//633 202//633
f 382//634 384//634 201//634
f 186//635 385//635 195//635
f 195//636 385//636 383//636
f 384//637 386//637 202//637
f 186//638 387//638 385//638
f 386//639 388//639 202//639
f 186//640 389//640 387//640
f 388//641 390//641 202//641
f 186//642 391//642 389//642
f 390//643 392//643 202//643
f 186//644 393//644 391//644
f 392//645 394//645 202//645
f 186//646 395//646 393//646
f 186//647 185//647 395//647
f 396//648 397//648 185//648
f 185//649 398//649 396//649
f 185//650 399//650 395//650
f 397//651 399//651 185//651
f 185//652 400//652 398//652
f 399//653 401//653 395//653
f 395//654 401//654 402//654
f 185//655 403//655 400//655
f 187//656 403//656 185//656
f 401//657 404//657 402//657
f 402//658 404//658 405//658
f 188//659 406//659 187//659
f 187//660 406//660 403//660
f 404//661 407//661 405//661
f 408//662 407//662 409//662
f 405//663 407//663 408//663
f 188//664 410//664 406//664
f 189//665 410//665 188//665
f 407//666 411//666 409//666
f 189//667 412//667 410//667
f 189//668 190//668 412//668
f 411//669 413//669 409//669
f 409//670 413//670 414//670
f 190//671 415//671 412//671
f 413//672 416//672 414//672
f 414//673 416//673 417//673
f 190//674 191//674 415//674
f 415//675 192//675 418//675
f 191//676 192//676 415//676
f 418//677 193//677 419//677
f 192//678 193//678 418//678
f 420//679 194//679 421//679
f 422//680 194//680 420//680
f 423//681 194//681 422//681
f 424//682 194//682 423//682
f 419//683 194//683 424//683
f 193//684 194//684 419//684
f 369//685 370//685 204//685
f 202//686 368//686 204//686
f 204//687 368//687 369//687
f 394//688 368//688 202//688
f 370//689 371//689 204//689
f 425//690 367//690 394//690
f 394//691 367//691 368//691
f 371//692 372//692 204//692
f 426//693 366//693 425//693
f 425//694 366//694 367//694
f 204//695 373//695 213//695
f 372//696 373//696 204//696
f 426//697 365//697 366//697
f 427//698 365//698 426//698
f 213//699 374//699 214//699
f 373//700 374//700 213//700
f 427//701 364//701 365//701
f 417//702 364//702 427//702
f 374//703 375//703 214//703
f 214//704 375//704 215//704
f 375//705 216//705 215//705
f 375//706 376//706 216//706
f 376//707 217//707 216//707
f 377//708 217//708 376//708
f 377//709 218//709 217//709
f 378//710 218//710 377//710
f 378//711 219//711 218//711
f 354//712 219//712 378//712
f 354//713 220//713 219//713
f 353//714 220//714 354//714
f 355//715 220//715 353//715
f 356//716 220//716 355//716
f 357//717 220//717 356//717
f 358//718 220//718 357//718
f 428//719 429//719 363//719
f 363//720 429//720 362//720
f 417//721 430//721 364//721
f 431//722 430//722 416//722
f 363//723 430//723 428//723
f 416//724 430//724 417//724
f 364//725 430//725 363//725
f 429//726 432//726 362//726
f 362//727 432//727 361//727
f 431//728 433//728 430//728
f 432//729 434//729 361//729
f 360//730 434//730 359//730
f 361//731 434//731 360//731
f 431//732 435//732 433//732
f 436//733 435//733 431//733
f 434//734 437//734 359//734
f 359//735 437//735 358//735
f 438//736 439//736 436//736
f 436//737 439//737 435//737
f 437//738 440//738 358//738
f 358//739 440//739 220//739
f 421//740 441//740 438//740
f 438//741 441//741 439//741
f 442//742 205//742 440//742
f 443//743 205//743 442//743
f 444//744 205//744 443//744
f 445//745 205//745 444//745
f 446//746 205//746 445//746
f 440//747 205//747 220//747
f 447//748 203//748 448//748
f 449//749 203//749 447//749
f 450//750 203//750 449//750
f 451//751 203//751 450//751
f 441//752 203//752 451//752
f 421//753 203//753 441//753
f 194//754 203//754 421//754
f 452//755 206//755 446//755
f 446//756 206//756 205//756
f 448//757 212//757 453//757
f 203//758 212//758 448//758
f 454//759 207//759 452//759
f 452//760 207//760 206//760
f 453//761 211//761 455//761
f 212//762 211//762 453//762
f 454//763 208//763 207//763
f 456//764 208//764 454//764
f 211//765 210//765 455//765
f 210//766 209//766 455//766
f 456//767 209//767 208//767
f 455//768 209//768 456//768
f 452//769 446//769 223//769
f 452//770 223//770 222//770
f 454//771 222//771 226//771
f 454//772 452//772 222//772
f 456//773 226//773 228//773
f 456//774 454//774 226//774
f 455//775 228//775 229//775
f 455//776 456//776 228//776
f 453//777 229//777 231//777
f 453//778 231//778 233//778
f 453//779 455//779 229//779
f 448//780 453//780 233//780
f 447//781 233//781 235//781
f 447//782 448//782 233//782
f 449//783 235//783 236//783
f 449//784 447//784 235//784
f 450//785 236//785 238//785
f 450//786 449//786 236//786
f 451//787 238//787 240//787
f 451//788 450//788 238//788
f 441//789 240//789 241//789
f 441//790 451//790 240//790
f 439//791 441//791 241//791
f 439//792 241//792 243//792
f 435//793 439//793 243//793
f 435//794 243//794 245//794
f 435//795 245//795 246//795
f 433//796 435//796 246//796
f 430//797 433//797 246//797
f 430//798 246//798 248//798
f 428//799 248//799 250//799
f 428//800 250//800 251//800
f 428//801 430//801 248//801
f 429//802 428//802 251//802
f 432//803 251//803 253//803
f 432//804 429//804 251//804
f 434//805 253//805 255//805
f 434//806 255//806 257//806
f 434//807 432//807 253//807
f 437//808 257//808 258//808
f 437//809 434//809 257//809
f 440//810 437//810 258//810
f 442//811 258//811 260//811
f 442//812 440//812 258//812
f 443//813 260//813 262//813
f 443//814 442//814 260//814
f 444//815 262//815 263//815
f 444//816 443//816 262//816
f 445//817 263//817 224//817
f 445//818 444//818 263//818
f 446//819 224//819 223//819
f 446//820 445//820 224//820
f 438//821 436//821 267//821
f 438//822 267//822 266//822
f 421//823 266//823 270//823
f 421//824 438//824 266//824
f 420//825 270//825 272//825
f 420//826 421//826 270//826
f 422//827 272//827 273//827
f 422//828 420//828 272//828
f 423//829 273//829 275//829
f 423//830 275//830 277//830
f 423//831 422//831 273//831
f 424//832 423//832 277//832
f 419//833 277//833 279//833
f 419//834 424//834 277//834
f 418//835 279//835 280//835
f 418//836 419//836 279//836
f 415//837 280//837 282//837
f 415//838 418//838 280//838
f 412//839 282//839 284//839
f 412//840 415//840 282//840
f 410//841 284//841 285//841
f 410//842 412//842 284//842
f 406//843 410//843 285//843
f 406//844 285//844 287//844
f 403//845 406//845 287//845
f 403//846 287//846 289//846
f 403//847 289//847 290//847
f 400//848 403//848 290//848
f 398//849 400//849 290//849
f 398//850 290//850 292//850
f 396//851 292//851 294//851
f 396//852 294//852 295//852
f 396//853 398//853 292//853
f 397//854 396//854 295//854
f 399//855 295//855 297//855
f 399//856 397//856 295//856
f 401//857 297//857 299//857
f 401//858 299//858 301//858
f 401//859 399//859 297//859
f 404//860 301//860 302//860
f 404//861 401//861 301//861
f 407//862 404//862 302//862
f 411//863 302//863 304//863
f 411//864 407//864 302//864
f 413//865 304//865 306//865
f 413//866 411//866 304//866
f 416//867 306//867 307//867
f 416//868 413//868 306//868
f 431//869 307//869 268//869
f 431//870 416//870 307//870
f 436//871 268//871 267//871
f 436//872 431//872 268//872
f 427//873 426//873 311//873
f 427//874 311//874 310//874
f 417//875 310//875 314//875
f 417//876 427//876 310//876
f 414//877 314//877 316//877
f 414//878 417//878 314//878
f 409//879 316//879 317//879
f 409//880 414//880 316//880
f 408//881 317//881 319//881
f 408//882 319//882 321//882
f 408//883 409//883 317//883
f 405//884 408//884 321//884
f 402//885 321//885 323//885
f 402//886 405//886 321//886
f 395//887 323//887 324//887
f 395//888 402//888 323//888
f 393//889 324//889 326//889
f 393//890 395//890 324//890
f 391//891 326//891 328//891
f 391//892 393//892 326//892
f 389//893 328//893 329//893
f 389//894 391//894 328//894
f 387//895 389//895 329//895
f 387//896 329//896 331//896
f 385//897 387//897 331//897
f 385//898 331//898 333//898
f 385//899 333//899 334//899
f 383//900 385//900 334//900
f 381//901 383//901 334//901
f 381//902 334//902 336//902
f 379//903 336//903 338//903
f 379//904 338//904 339//904
f 379//905 381//905 336//905
f 380//906 379//906 339//906
f 382//907 339//907 341//907
f 382//908 380//908 339//908
f 384//909 341//909 343//909
f 384//910 343//910 345//910
f 384//911 382//911 341//911
f 386//912 345//912 346//912
f 386//913 384//913 345//913
f 388//914 386//914 346//914
f 390//915 346//915 348//915
f 390//916 388//916 346//916
f 392//917 348//917 350//917
f 392//918 390//918 348//918
f 394//919 350//919 351//919
f 394//920 392//920 350//920
f 425//921 351//921 312//921
f 425//922 394//922 351//922
f 426//923 312//923 311//923
f 426//924 425//924 312//924
