# Created by FreeCAD <https://www.freecad.org>
v -45.432659 4.000000 -32.155148
v -46.535534 4.000000 -33.535534
v -47.157349 4.000000 -32.777851
v -44.846210 4.000000 -32.674698
v -44.913418 4.000000 -34.619396
v -45.777851 4.000000 -34.157349
v -45.877731 4.000000 -31.510351
v -47.619396 4.000000 -31.913418
v -44.152466 4.000000 -33.038803
v -43.975452 4.000000 -34.903927
v -46.155560 4.000000 -30.777777
v -47.903927 4.000000 -30.975452
v -43.391743 4.000000 -33.226303
v -43.000000 4.000000 -35.000000
v -46.250000 4.000000 -30.000000
v -48.000000 4.000000 -30.000000
v -42.608257 4.000000 -33.226303
v -46.155560 4.000000 -29.222223
v -41.847534 4.000000 -33.038803
v -45.877731 4.000000 -28.489649
v -41.153790 4.000000 -32.674698
v -45.432659 4.000000 -27.844851
v -40.567341 4.000000 -32.155148
v -48.000000 4.000000 30.000000
v -45.432659 4.000000 27.844851
v -44.846210 4.000000 27.325302
v -44.846210 4.000000 -27.325302
v -44.152466 4.000000 26.961197
v -44.152466 4.000000 -26.961197
v -46.155560 4.000000 29.222223
v -43.391743 4.000000 26.773697
v -43.391743 4.000000 -26.773697
v -46.250000 4.000000 30.000000
v -47.903927 4.000000 30.975452
v -42.608257 4.000000 26.773697
v -42.608257 4.000000 -26.773697
v -46.155560 4.000000 30.777777
v -47.619396 4.000000 31.913418
v -41.847534 4.000000 26.961197
v -41.847534 4.000000 -26.961197
v -45.877731 4.000000 31.510351
v -47.157349 4.000000 32.777851
v -41.153790 4.000000 27.325302
v -41.153790 4.000000 -27.325302
v -45.432659 4.000000 32.155148
v -46.535534 4.000000 33.535534
v -44.846210 4.000000 32.674698
v -45.777851 4.000000 34.157349
v -44.913418 4.000000 34.619396
v -44.152466 4.000000 33.038803
v -43.975452 4.000000 34.903927
v -43.391743 4.000000 33.226303
v -43.000000 4.000000 35.000000
v -41.847534 4.000000 33.038803
v -42.608257 4.000000 33.226303
v -40.567341 4.000000 32.155148
v -41.153790 4.000000 32.674698
v 40.567341 4.000000 -32.155148
v 43.000000 4.000000 -35.000000
v 41.153790 4.000000 -32.674698
v 40.122269 4.000000 -31.510351
v -40.122269 4.000000 -31.510351
v 41.847534 4.000000 -33.038803
v 39.844440 4.000000 -30.777777
v -39.844440 4.000000 -30.777777
v 42.608257 4.000000 -33.226303
v 39.750000 4.000000 -30.000000
v 43.391743 4.000000 -33.226303
v 43.975452 4.000000 -34.903927
v 39.844440 4.000000 -29.222223
v -39.844440 4.000000 -29.222223
v 44.152466 4.000000 -33.038803
v 44.913418 4.000000 -34.619396
v 44.846210 4.000000 -32.674698
v 45.777851 4.000000 -34.157349
v 46.535534 4.000000 -33.535534
v 45.432659 4.000000 -32.155148
v 47.157349 4.000000 -32.777851
v 45.877731 4.000000 -31.510351
v 46.155560 4.000000 -30.777777
v 47.903927 4.000000 -30.975452
v 48.000000 4.000000 -30.000000
v 46.155560 4.000000 -29.222223
v 45.877731 4.000000 -28.489649
v 45.432659 4.000000 -27.844851
v -40.122269 4.000000 -28.489649
v -40.567341 4.000000 -27.844851
v 17.875000 4.000000 13.587341
v 15.444778 4.000000 16.136084
v -40.567341 4.000000 27.844851
v 18.955826 4.000000 13.093745
v 40.122269 4.000000 -28.489649
v 15.003169 4.000000 17.239172
v 20.110533 4.000000 12.813616
v 40.567341 4.000000 -27.844851
v 14.778300 4.000000 18.405899
v 21.297386 4.000000 12.757079
v 14.778300 4.000000 19.594101
v 22.473494 4.000000 12.926178
v 41.153790 4.000000 -27.325302
v 15.003169 4.000000 20.760828
v -39.750000 4.000000 30.000000
v 23.596344 4.000000 13.314800
v 41.847534 4.000000 -26.961197
v 15.444778 4.000000 21.863916
v -39.844440 4.000000 30.777777
v 42.608257 4.000000 -26.773697
v 16.087168 4.000000 22.863493
v -40.122269 4.000000 31.510351
v 25.523338 4.000000 14.687006
v 43.391743 4.000000 -26.773697
v 16.907120 4.000000 23.723434
v 26.257835 4.000000 15.620995
v 17.875000 4.000000 24.412659
v 18.955826 4.000000 24.906256
v 40.567341 4.000000 27.844851
v 27.137054 4.000000 20.182819
v 26.802299 4.000000 21.322891
v 41.153790 4.000000 27.325302
v 27.250000 4.000000 19.000000
v 40.122269 4.000000 28.489649
v 26.257835 4.000000 22.379005
v 41.847534 4.000000 26.961197
v 27.137054 4.000000 17.817181
v 39.844440 4.000000 29.222223
v 25.523338 4.000000 23.312994
v 42.608257 4.000000 26.773697
v 26.802299 4.000000 16.677109
v 39.750000 4.000000 30.000000
v 24.625355 4.000000 24.091099
v 43.391743 4.000000 26.773697
v 39.844440 4.000000 30.777777
v 23.596344 4.000000 24.685200
v 44.152466 4.000000 26.961197
v 44.846210 4.000000 -27.325302
v 44.152466 4.000000 -26.961197
v 22.473494 4.000000 25.073822
v 44.846210 4.000000 27.325302
v 40.567341 4.000000 32.155148
v 21.297386 4.000000 25.242920
v 45.432659 4.000000 27.844851
v 43.000000 4.000000 35.000000
v 43.391743 4.000000 33.226303
v 42.608257 4.000000 33.226303
v 41.847534 4.000000 33.038803
v 41.153790 4.000000 32.674698
v 20.110533 4.000000 25.186384
v 46.250000 4.000000 30.000000
v 47.903927 4.000000 30.975452
v 43.975452 4.000000 34.903927
v 44.152466 4.000000 33.038803
v 47.619396 4.000000 31.913418
v 45.877731 4.000000 31.510351
v 44.913418 4.000000 34.619396
v 44.846210 4.000000 32.674698
v 47.157349 4.000000 32.777851
v 45.432659 4.000000 32.155148
v 45.777851 4.000000 34.157349
v 46.535534 4.000000 33.535534
v 45.500000 3.250000 30.000000
v 46.155560 4.000000 30.777777
v 44.750000 2.500000 30.000000
v 44.699150 2.500000 30.418802
v 46.155560 4.000000 29.222223
v 44.699150 2.500000 29.581198
v 45.331181 3.250000 30.903105
v 44.549549 2.500000 30.813265
v 44.847523 3.250000 31.684238
v 44.309895 2.500000 31.160465
v 43.994114 2.500000 31.440222
v 44.114346 3.250000 32.237907
v 43.620560 2.500000 31.636278
v 43.230671 3.250000 32.489334
v 43.210938 2.500000 31.737240
v 42.789062 2.500000 31.737240
v 42.315842 3.250000 32.404564
v 42.379440 2.500000 31.636278
v 41.493412 3.250000 31.995043
v 42.005886 2.500000 31.440222
v 41.690105 2.500000 31.160465
v 40.874458 3.250000 31.316080
v 40.122269 4.000000 31.510351
v 41.450451 2.500000 30.813265
v 40.542568 3.250000 30.459373
v 41.300850 2.500000 30.418802
v 41.250000 2.500000 30.000000
v 40.542568 3.250000 29.540627
v 41.300850 2.500000 29.581198
v 41.450451 2.500000 29.186735
v 40.874458 3.250000 28.683920
v 41.690105 2.500000 28.839535
v 41.493412 3.250000 28.004957
v 42.005886 2.500000 28.559778
v 42.379440 2.500000 28.363722
v 42.315842 3.250000 27.595436
v 42.789062 2.500000 28.262760
v 43.230671 3.250000 27.510664
v 43.210938 2.500000 28.262760
v 43.620560 2.500000 28.363722
v 44.114346 3.250000 27.762093
v 43.994114 2.500000 28.559778
v 44.847523 3.250000 28.315762
v 45.877731 4.000000 28.489649
v 44.309895 2.500000 28.839535
v 44.549549 2.500000 29.186735
v 45.331181 3.250000 29.096895
v 43.000000 -0.000000 -35.000000
v -43.000000 -0.000000 -35.000000
v -43.975452 -0.000000 -34.903927
v -44.913418 -0.000000 -34.619396
v -46.535534 -0.000000 -33.535534
v -47.619396 -0.000000 -31.913418
v -48.000000 -0.000000 -30.000000
v 43.975452 -0.000000 -34.903927
v 44.913418 -0.000000 -34.619396
v 45.777851 -0.000000 -34.157349
v 47.157349 -0.000000 -32.777851
v 47.619396 4.000000 -31.913418
v 48.000000 -0.000000 -30.000000
v -48.000000 0.000000 30.000000
v 48.000000 0.000000 30.000000
v 48.000000 4.000000 30.000000
v -43.000000 0.000000 35.000000
v -46.535534 0.000000 33.535534
v -47.157349 0.000000 32.777851
v -47.619396 0.000000 31.913418
v -47.903927 0.000000 30.975452
v 47.903927 0.000000 30.975452
v 47.619396 0.000000 31.913418
v 47.157349 0.000000 32.777851
v 46.535534 0.000000 33.535534
v 45.777851 0.000000 34.157349
v 44.913418 0.000000 34.619396
v 43.975452 0.000000 34.903927
v 43.000000 0.000000 35.000000
v 27.250000 0.000000 19.000000
v 27.137054 0.000000 20.182819
v 26.802299 0.000000 21.322891
v 26.257835 0.000000 22.379005
v 25.523338 0.000000 23.312994
v 24.625355 0.000000 24.091099
v 23.596344 0.000000 24.685200
v 22.473494 0.000000 25.073822
v 21.297386 0.000000 25.242920
v 20.110533 0.000000 25.186384
v 18.955826 0.000000 24.906256
v 17.875000 0.000000 24.412659
v 16.907120 0.000000 23.723434
v 16.087168 0.000000 22.863493
v 15.444778 0.000000 21.863916
v 15.003169 0.000000 20.760828
v 14.778300 0.000000 19.594101
v 14.778300 0.000000 18.405899
v 15.003169 0.000000 17.239172
v 15.444778 0.000000 16.136084
v 16.087168 0.000000 15.136506
v 16.087168 4.000000 15.136506
v 16.907120 4.000000 14.276566
v 16.907120 0.000000 14.276566
v 17.875000 0.000000 13.587341
v 18.955826 0.000000 13.093745
v 20.110533 0.000000 12.813616
v 21.297386 0.000000 12.757079
v 22.473494 0.000000 12.926178
v 23.596344 0.000000 13.314800
v 24.625355 0.000000 13.908900
v 24.625355 4.000000 13.908900
v 25.523338 0.000000 14.687006
v 26.257835 0.000000 15.620995
v 26.802299 0.000000 16.677109
v 27.137054 0.000000 17.817181
v -40.500000 3.250000 30.000000
v -41.250000 2.500000 30.000000
v -41.300850 2.500000 30.418802
v -39.844440 4.000000 29.222223
v -41.300850 2.500000 29.581198
v -40.668819 3.250000 30.903105
v -41.450451 2.500000 30.813265
v -41.152477 3.250000 31.684238
v -41.690105 2.500000 31.160465
v -42.005886 2.500000 31.440222
v -41.885654 3.250000 32.237907
v -42.379440 2.500000 31.636278
v -42.769329 3.250000 32.489334
v -42.789062 2.500000 31.737240
v -43.210938 2.500000 31.737240
v -43.684158 3.250000 32.404564
v -43.620560 2.500000 31.636278
v -44.506588 3.250000 31.995043
v -43.994114 2.500000 31.440222
v -44.309895 2.500000 31.160465
v -45.125542 3.250000 31.316080
v -44.549549 2.500000 30.813265
v -45.457432 3.250000 30.459373
v -44.699150 2.500000 30.418802
v -44.750000 2.500000 30.000000
v -45.457432 3.250000 29.540627
v -45.877731 4.000000 28.489649
v -44.699150 2.500000 29.581198
v -44.549549 2.500000 29.186735
v -45.125542 3.250000 28.683920
v -44.309895 2.500000 28.839535
v -44.506588 3.250000 28.004957
v -43.994114 2.500000 28.559778
v -43.620560 2.500000 28.363722
v -43.684158 3.250000 27.595436
v -43.210938 2.500000 28.262760
v -42.769329 3.250000 27.510664
v -42.789062 2.500000 28.262760
v -42.379440 2.500000 28.363722
v -41.885654 3.250000 27.762093
v -42.005886 2.500000 28.559778
v -41.152477 3.250000 28.315762
v -40.122269 4.000000 28.489649
v -41.690105 2.500000 28.839535
v -41.450451 2.500000 29.186735
v -40.668819 3.250000 29.096895
v -39.750000 4.000000 -30.000000
v -40.500000 3.250000 -30.000000
v -41.250000 2.500000 -30.000000
v -41.300850 2.500000 -29.581198
v -41.300850 2.500000 -30.418802
v -40.668819 3.250000 -29.096895
v -41.450451 2.500000 -29.186735
v -41.152477 3.250000 -28.315762
v -41.690105 2.500000 -28.839535
v -42.005886 2.500000 -28.559778
v -41.885654 3.250000 -27.762093
v -42.379440 2.500000 -28.363722
v -42.769329 3.250000 -27.510664
v -42.789062 2.500000 -28.262760
v -43.210938 2.500000 -28.262760
v -43.684158 3.250000 -27.595436
v -43.620560 2.500000 -28.363722
v -44.506588 3.250000 -28.004957
v -43.994114 2.500000 -28.559778
v -44.309895 2.500000 -28.839535
v -45.125542 3.250000 -28.683920
v -44.549549 2.500000 -29.186735
v -45.457432 3.250000 -29.540627
v -44.699150 2.500000 -29.581198
v -44.750000 2.500000 -30.000000
v -45.457432 3.250000 -30.459373
v -44.699150 2.500000 -30.418802
v -44.549549 2.500000 -30.813265
v -45.125542 3.250000 -31.316080
v -44.309895 2.500000 -31.160465
v -44.506588 3.250000 -31.995043
v -43.994114 2.500000 -31.440222
v -43.620560 2.500000 -31.636278
v -43.684158 3.250000 -32.404564
v -43.210938 2.500000 -31.737240
v -42.769329 3.250000 -32.489334
v -42.789062 2.500000 -31.737240
v -42.379440 2.500000 -31.636278
v -41.885654 3.250000 -32.237907
v -42.005886 2.500000 -31.440222
v -41.152477 3.250000 -31.684238
v -41.690105 2.500000 -31.160465
v -41.450451 2.500000 -30.813265
v -40.668819 3.250000 -30.903105
v 46.250000 4.000000 -30.000000
v 45.500000 3.250000 -30.000000
v 44.750000 2.500000 -30.000000
v 44.699150 2.500000 -29.581198
v 44.699150 2.500000 -30.418802
v 45.331181 3.250000 -29.096895
v 44.549549 2.500000 -29.186735
v 44.847523 3.250000 -28.315762
v 44.309895 2.500000 -28.839535
v 43.994114 2.500000 -28.559778
v 44.114346 3.250000 -27.762093
v 43.620560 2.500000 -28.363722
v 43.230671 3.250000 -27.510664
v 43.210938 2.500000 -28.262760
v 42.789062 2.500000 -28.262760
v 42.315842 3.250000 -27.595436
v 42.379440 2.500000 -28.363722
v 41.493412 3.250000 -28.004957
v 42.005886 2.500000 -28.559778
v 41.690105 2.500000 -28.839535
v 40.874458 3.250000 -28.683920
v 41.450451 2.500000 -29.186735
v 40.542568 3.250000 -29.540627
v 41.300850 2.500000 -29.581198
v 41.250000 2.500000 -30.000000
v 40.542568 3.250000 -30.459373
v 41.300850 2.500000 -30.418802
v 41.450451 2.500000 -30.813265
v 40.874458 3.250000 -31.316080
v 41.690105 2.500000 -31.160465
v 41.493412 3.250000 -31.995043
v 42.005886 2.500000 -31.440222
v 42.379440 2.500000 -31.636278
v 42.315842 3.250000 -32.404564
v 42.789062 2.500000 -31.737240
v 43.230671 3.250000 -32.489334
v 43.210938 2.500000 -31.737240
v 43.620560 2.500000 -31.636278
v 44.114346 3.250000 -32.237907
v 43.994114 2.500000 -31.440222
v 44.847523 3.250000 -31.684238
v 44.309895 2.500000 -31.160465
v 44.549549 2.500000 -30.813265
v 45.331181 3.250000 -30.903105
v 44.750000 0.000000 30.000000
v 44.699150 0.000000 30.418802
v 44.549549 0.000000 30.813265
v 44.309895 0.000000 31.160465
v 43.994114 0.000000 31.440222
v 43.620560 0.000000 31.636278
v 43.210938 0.000000 31.737240
v 42.789062 0.000000 31.737240
v 42.379440 0.000000 31.636278
v 42.005886 0.000000 31.440222
v 41.690105 0.000000 31.160465
v 41.450451 0.000000 30.813265
v 41.300850 0.000000 30.418802
v 41.250000 0.000000 30.000000
v 41.300850 0.000000 29.581198
v 41.450451 0.000000 29.186735
v 41.690105 0.000000 28.839535
v 42.005886 0.000000 28.559778
v 42.379440 0.000000 28.363722
v 42.789062 0.000000 28.262760
v 43.210938 0.000000 28.262760
v 43.620560 0.000000 28.363722
v 43.994114 0.000000 28.559778
v 44.309895 0.000000 28.839535
v 44.549549 0.000000 29.186735
v 44.699150 0.000000 29.581198
v -44.309895 -0.000000 -31.160465
v -47.157349 -0.000000 -32.777851
v -43.994114 -0.000000 -31.440222
v -45.777851 -0.000000 -34.157349
v -44.549549 -0.000000 -30.813265
v -43.620560 -0.000000 -31.636278
v -44.699150 -0.000000 -30.418802
v -47.903927 0.000000 -30.975452
v -43.210938 -0.000000 -31.737240
v -44.750000 -0.000000 -30.000000
v -42.789062 -0.000000 -31.737240
v -44.699150 -0.000000 -29.581198
v -42.379440 -0.000000 -31.636278
v -44.549549 -0.000000 -29.186735
v -42.005886 -0.000000 -31.440222
v -44.309895 -0.000000 -28.839535
v -41.690105 -0.000000 -31.160465
v -43.994114 -0.000000 -28.559778
v -41.450451 -0.000000 -30.813265
v -43.620560 -0.000000 -28.363722
v -43.994114 0.000000 28.559778
v -44.309895 0.000000 28.839535
v -44.549549 0.000000 29.186735
v -43.620560 0.000000 28.363722
v -44.699150 0.000000 29.581198
v -43.210938 0.000000 28.262760
v -43.210938 -0.000000 -28.262760
v -44.750000 0.000000 30.000000
v -42.789062 -0.000000 -28.262760
v -42.789062 0.000000 28.262760
v -44.699150 0.000000 30.418802
v -42.005886 -0.000000 -28.559778
v -42.379440 0.000000 28.363722
v -42.379440 -0.000000 -28.363722
v -44.549549 0.000000 30.813265
v -42.005886 0.000000 28.559778
v -44.309895 0.000000 31.160465
v -43.994114 0.000000 31.440222
v -45.777851 0.000000 34.157349
v -43.620560 0.000000 31.636278
v -44.913418 0.000000 34.619396
v -43.210938 0.000000 31.737240
v -43.975452 0.000000 34.903927
v -41.450451 0.000000 30.813265
v -41.690105 0.000000 31.160465
v -42.005886 0.000000 31.440222
v -42.379440 0.000000 31.636278
v -42.789062 0.000000 31.737240
v 42.005886 -0.000000 -31.440222
v 41.690105 -0.000000 -31.160465
v 41.450451 -0.000000 -30.813265
v 42.379440 -0.000000 -31.636278
v 41.300850 -0.000000 -30.418802
v -41.300850 -0.000000 -30.418802
v -41.250000 -0.000000 -30.000000
v 42.789062 -0.000000 -31.737240
v 41.250000 -0.000000 -30.000000
v 43.210938 -0.000000 -31.737240
v 41.300850 -0.000000 -29.581198
v -41.300850 -0.000000 -29.581198
v 43.620560 -0.000000 -31.636278
v 43.994114 -0.000000 -31.440222
v 46.535534 -0.000000 -33.535534
v 44.309895 -0.000000 -31.160465
v 44.549549 -0.000000 -30.813265
v 47.619396 -0.000000 -31.913418
v 44.699150 -0.000000 -30.418802
v 47.903927 0.000000 -30.975452
v 44.750000 -0.000000 -30.000000
v 44.699150 -0.000000 -29.581198
v 44.549549 -0.000000 -29.186735
v 44.309895 -0.000000 -28.839535
v 43.994114 -0.000000 -28.559778
v 43.620560 -0.000000 -28.363722
v -41.450451 -0.000000 -29.186735
v -41.690105 -0.000000 -28.839535
v -41.690105 0.000000 28.839535
v 41.450451 -0.000000 -29.186735
v -41.450451 0.000000 29.186735
v 41.690105 -0.000000 -28.839535
v -41.300850 0.000000 29.581198
v 42.005886 -0.000000 -28.559778
v -41.250000 0.000000 30.000000
v 42.379440 -0.000000 -28.363722
v -41.300850 0.000000 30.418802
v 42.789062 -0.000000 -28.262760
v 43.210938 -0.000000 -28.262760
vn 0.000000 1.000000 0.000000
vn 0.000000 1.000000 0.000000
vn 0.000000 1.000000 0.000000
vn 0.000000 1.000000 0.000000
vn 0.000000 1.000000 0.000000
vn 0.000000 1.000000 0.000000
vn 0.000000 1.000000 0.000000
vn 0.000000 1.000000 0.000000
vn 0.000000 1.000000 0.000000
vn 0.000000 1.000000 0.000000
vn 0.000000 1.000000 0.000000
vn 0.000000 1.000000 0.000000
vn 0.000000 1.000000 0.000000
vn 0.000000 1.000000 0.000000
vn 0.000000 1.000000 0.000000
vn 0.000000 1.000000 0.000000
vn 0.000000 1.000000 0.000000
vn 0.000000 1.000000 0.000000
vn 0.000000 1.000000 0.000000
vn 0.000000 1.000000 0.000000
vn 0.000000 1.000000 0.000000
vn 0.000000 1.000000 0.000000
vn 0.000000 1.000000 0.000000
vn 0.000000 1.000000 0.000000
vn 0.000000 1.000000 0.000000
vn 0.000000 1.000000 0.000000
vn 0.000000 1.000000 0.000000
vn 0.000000 1.000000 0.000000
vn 0.000000 1.000000 0.000000
vn 0.000000 1.000000 0.000000
vn 0.000000 1.000000 0.000000
vn 0.000000 1.000000 0.000000
vn 0.000000 1.000000 0.000000
vn 0.000000 1.000000 0.000000
vn 0.000000 1.000000 0.000000
vn 0.000000 1.000000 0.000000
vn 0.000000 1.000000 0.000000
vn 0.000000 1.000000 0.000000
vn 0.000000 1.000000 0.000000
vn 0.000000 1.000000 0.000000
vn 0.000000 1.000000 0.000000
vn 0.000000 1.000000 0.000000
vn 0.000000 1.000000 0.000000
vn 0.000000 1.000000 0.000000
vn 0.000000 1.000000 0.000000
vn 0.000000 1.000000 0.000000
vn 0.000000 1.000000 0.000000
vn 0.000000 1.000000 0.000000
vn 0.000000 1.000000 0.000000
vn 0.000000 1.000000 0.000000
vn 0.000000 1.000000 0.000000
vn 0.000000 1.000000 0.000000
vn 0.000000 1.000000 0.000000
vn 0.000000 1.000000 0.000000
vn 0.000000 1.000000 0.000000
vn 0.000000 1.000000 0.000000
vn 0.000000 1.000000 0.000000
vn 0.000000 1.000000 0.000000
vn 0.000000 1.000000 0.000000
vn 0.000000 1.000000 0.000000
vn 0.000000 1.000000 0.000000
vn 0.000000 1.000000 0.000000
vn 0.000000 1.000000 0.000000
vn 0.000000 1.000000 0.000000
vn 0.000000 1.000000 0.000000
vn 0.000000 1.000000 0.000000
vn 0.000000 1.000000 0.000000
vn 0.000000 1.000000 0.000000
vn 0.000000 1.000000 0.000000
vn 0.000000 1.000000 0.000000
vn 0.000000 1.000000 0.000000
vn 0.000000 1.000000 0.000000
vn 0.000000 1.000000 0.000000
vn 0.000000 1.000000 0.000000
vn 0.000000 1.000000 0.000000
vn 0.000000 1.000000 0.000000
vn 0.000000 1.000000 0.000000
vn 0.000000 1.000000 0.000000
vn 0.000000 1.000000 0.000000
vn 0.000000 1.000000 0.000000
vn 0.000000 1.000000 0.000000
vn 0.000000 1.000000 0.000000
vn 0.000000 1.000000 0.000000
vn 0.000000 1.000000 0.000000
vn 0.000000 1.000000 0.000000
vn 0.000000 1.000000 0.000000
vn 0.000000 1.000000 0.000000
vn 0.000000 1.000000 0.000000
vn 0.000000 1.000000 0.000000
vn 0.000000 1.000000 0.000000
vn 0.000000 1.000000 0.000000
vn 0.000000 1.000000 0.000000
vn 0.000000 1.000000 0.000000
vn 0.000000 1.000000 0.000000
vn 0.000000 1.000000 0.000000
vn 0.000000 1.000000 0.000000
vn 0.000000 1.000000 0.000000
vn 0.000000 1.000000 0.000000
vn 0.000000 1.000000 0.000000
vn 0.000000 1.000000 0.000000
vn 0.000000 1.000000 0.000000
vn 0.000000 1.000000 0.000000
vn 0.000000 1.000000 0.000000
vn 0.000000 1.000000 0.000000
vn 0.000000 1.000000 0.000000
vn 0.000000 1.000000 0.000000
vn 0.000000 1.000000 0.000000
vn 0.000000 1.000000 0.000000
vn 0.000000 1.000000 0.000000
vn 0.000000 1.000000 0.000000
vn 0.000000 1.000000 0.000000
vn 0.000000 1.000000 0.000000
vn 0.000000 1.000000 0.000000
vn 0.000000 1.000000 0.000000
vn 0.000000 1.000000 0.000000
vn 0.000000 1.000000 0.000000
vn 0.000000 1.000000 0.000000
vn 0.000000 1.000000 0.000000
vn 0.000000 1.000000 0.000000
vn 0.000000 1.000000 0.000000
vn 0.000000 1.000000 0.000000
vn 0.000000 1.000000 0.000000
vn 0.000000 1.000000 0.000000
vn 0.000000 1.000000 0.000000
vn 0.000000 1.000000 0.000000
vn 0.000000 1.000000 0.000000
vn 0.000000 1.000000 0.000000
vn 0.000000 1.000000 0.000000
vn 0.000000 1.000000 0.000000
vn 0.000000 1.000000 0.000000
vn 0.000000 1.000000 0.000000
vn 0.000000 1.000000 0.000000
vn 0.000000 1.000000 0.000000
vn 0.000000 1.000000 0.000000
vn 0.000000 1.000000 0.000000
vn 0.000000 1.000000 0.000000
vn 0.000000 1.000000 0.000000
vn 0.000000 1.000000 0.000000
vn 0.000000 1.000000 0.000000
vn 0.000000 1.000000 0.000000
vn 0.000000 1.000000 0.000000
vn 0.000000 1.000000 0.000000
vn 0.000000 1.000000 0.000000
vn 0.000000 1.000000 0.000000
vn 0.000000 1.000000 0.000000
vn 0.000000 1.000000 0.000000
vn 0.000000 1.000000 0.000000
vn 0.000000 1.000000 0.000000
vn 0.000000 1.000000 0.000000
vn 0.000000 1.000000 0.000000
vn 0.000000 1.000000 0.000000
vn 0.000000 1.000000 0.000000
vn 0.000000 1.000000 0.000000
vn 0.000000 1.000000 0.000000
vn 0.000000 1.000000 0.000000
vn 0.000000 1.000000 0.000000
vn 0.000000 1.000000 0.000000
vn 0.000000 1.000000 0.000000
vn 0.000000 1.000000 0.000000
vn 0.000000 1.000000 0.000000
vn 0.000000 1.000000 0.000000
vn 0.000000 1.000000 0.000000
vn 0.000000 1.000000 0.000000
vn 0.000000 1.000000 0.000000
vn 0.000000 1.000000 0.000000
vn 0.000000 1.000000 0.000000
vn 0.000000 1.000000 0.000000
vn 0.000000 1.000000 0.000000
vn 0.000000 1.000000 0.000000
vn 0.000000 1.000000 0.000000
vn 0.000000 1.000000 0.000000
vn 0.000000 1.000000 0.000000
vn 0.000000 1.000000 0.000000
vn 0.000000 1.000000 0.000000
vn 0.000000 1.000000 0.000000
vn 0.000000 1.000000 0.000000
vn 0.000000 1.000000 0.000000
vn 0.000000 1.000000 0.000000
vn 0.000000 1.000000 0.000000
vn 0.000000 1.000000 0.000000
vn 0.000000 1.000000 0.000000
vn -0.704515 0.704515 -0.085545
vn -0.704515 0.704515 -0.085540
vn -0.704515 0.704515 0.085545
vn -0.704515 0.704515 0.085540
vn -0.671654 0.695698 -0.254724
vn -0.655584 0.713016 -0.248632
vn -0.677997 0.724056 -0.126739
vn -0.713719 0.687608 -0.133417
vn -0.582300 0.706665 -0.401934
vn -0.471879 0.702585 -0.532639
vn -0.585832 0.702343 -0.404370
vn -0.469347 0.706429 -0.529785
vn -0.587584 0.722761 -0.363817
vn -0.616673 0.688420 -0.381828
vn -0.333714 0.695949 -0.635839
vn -0.325949 0.712784 -0.621045
vn -0.437922 0.686977 -0.579903
vn -0.415025 0.725060 -0.549583
vn -0.168758 0.709032 -0.684685
vn 0.000000 0.700883 -0.713276
vn -0.189583 0.721168 -0.666315
vn -0.198234 0.689406 -0.696723
vn -0.170925 0.699910 -0.693477
vn 0.000000 0.708092 -0.706120
vn 0.171734 0.696446 -0.696757
vn 0.167963 0.712319 -0.681461
vn 0.063474 0.725773 -0.684999
vn 0.067088 0.686525 -0.724005
vn 0.322388 0.690567 -0.647444
vn 0.326505 0.711605 -0.622103
vn 0.473947 0.699413 -0.534973
vn 0.333146 0.697207 -0.634757
vn 0.467299 0.709509 -0.527473
vn 0.309668 0.719269 -0.621898
vn 0.589984 0.697192 -0.407238
vn 0.578201 0.711619 -0.399102
vn 0.508057 0.726200 -0.463153
vn 0.537529 0.686252 -0.490021
vn 0.673241 0.691898 -0.260815
vn 0.654287 0.714378 -0.248138
vn 0.710700 0.698182 -0.086296
vn 0.672986 0.694224 -0.255232
vn 0.698384 0.710683 -0.084796
vn 0.649943 0.717061 -0.251789
vn 0.710700 0.698182 0.086296
vn 0.654287 0.714378 0.248138
vn 0.698384 0.710683 0.084796
vn 0.672986 0.694224 0.255232
vn 0.727450 0.686161 0.000000
vn 0.687332 0.726343 0.000000
vn 0.589984 0.697192 0.407237
vn 0.578201 0.711619 0.399102
vn 0.649943 0.717061 0.251789
vn 0.673241 0.691898 0.260815
vn 0.473945 0.699413 0.534974
vn 0.326505 0.711605 0.622103
vn 0.467299 0.709509 0.527473
vn 0.333146 0.697207 0.634757
vn 0.508057 0.726201 0.463153
vn 0.537529 0.686252 0.490021
vn 0.322388 0.690567 0.647444
vn 0.171734 0.696446 0.696757
vn 0.167963 0.712319 0.681461
vn 0.309668 0.719269 0.621898
vn 0.063475 0.725773 0.684999
vn 0.067089 0.686525 0.724004
vn -0.000000 0.700882 0.713277
vn -0.168759 0.709031 0.684686
vn 0.000000 0.708093 0.706119
vn -0.170925 0.699911 0.693476
vn -0.189584 0.721167 0.666315
vn -0.333714 0.695949 0.635839
vn -0.325949 0.712784 0.621045
vn -0.198236 0.689406 0.696722
vn -0.471878 0.702585 0.532640
vn -0.582300 0.706666 0.401933
vn -0.415025 0.725060 0.549583
vn -0.469347 0.706429 0.529785
vn -0.585832 0.702343 0.404370
vn -0.437922 0.686977 0.579903
vn -0.616673 0.688420 0.381828
vn -0.671654 0.695698 0.254724
vn -0.587584 0.722761 0.363817
vn -0.677997 0.724056 0.126739
vn -0.655584 0.713016 0.248632
vn -0.713719 0.687608 0.133417
vn 0.000000 0.000000 -1.000000
vn 0.000000 0.000000 -1.000000
vn -0.098017 -0.000000 -0.995185
vn -0.098017 0.000000 -0.995185
vn -0.290287 -0.000000 -0.956940
vn -0.290287 0.000000 -0.956940
vn -0.471395 -0.000000 -0.881922
vn -0.471395 0.000000 -0.881922
vn -0.634394 -0.000000 -0.773010
vn -0.634394 0.000000 -0.773010
vn -0.773010 -0.000000 -0.634394
vn -0.773010 0.000000 -0.634394
vn -0.881922 -0.000000 -0.471395
vn -0.881922 0.000000 -0.471395
vn -0.956940 -0.000000 -0.290287
vn -0.956940 0.000000 -0.290287
vn -0.995185 -0.000000 -0.098017
vn -0.995185 0.000000 -0.098017
vn 0.098017 0.000000 -0.995185
vn 0.098017 0.000000 -0.995185
vn 0.290287 0.000000 -0.956940
vn 0.290287 0.000000 -0.956940
vn 0.471395 0.000000 -0.881922
vn 0.471395 0.000000 -0.881922
vn 0.634394 0.000000 -0.773010
vn 0.634394 0.000000 -0.773010
vn 0.773010 0.000000 -0.634394
vn 0.773010 0.000000 -0.634394
vn 0.881922 0.000000 -0.471395
vn 0.881922 0.000000 -0.471395
vn 0.956940 0.000000 -0.290287
vn 0.956940 0.000000 -0.290287
vn 0.995185 0.000000 -0.098017
vn 0.995185 0.000000 -0.098017
vn -1.000000 0.000000 0.000000
vn -1.000000 0.000000 0.000000
vn 1.000000 0.000000 0.000000
vn 1.000000 -0.000000 0.000000
vn -0.098017 0.000000 0.995185
vn -0.098017 0.000000 0.995185
vn -0.290287 0.000000 0.956940
vn -0.471395 0.000000 0.881922
vn -0.290287 0.000000 0.956940
vn -0.471395 0.000000 0.881922
vn -0.634394 0.000000 0.773010
vn -0.634394 0.000000 0.773010
vn -0.773010 0.000000 0.634394
vn -0.773010 0.000000 0.634394
vn -0.881922 0.000000 0.471395
vn -0.881922 0.000000 0.471395
vn -0.956940 0.000000 0.290287
vn -0.995185 0.000000 0.098017
vn -0.956940 0.000000 0.290287
vn -0.995185 0.000000 0.098017
vn 0.995185 0.000000 0.098017
vn 0.995185 0.000000 0.098017
vn 0.956940 0.000000 0.290287
vn 0.956940 0.000000 0.290287
vn 0.881922 0.000000 0.471395
vn 0.881922 0.000000 0.471395
vn 0.773010 0.000000 0.634394
vn 0.773010 0.000000 0.634394
vn 0.634394 0.000000 0.773010
vn 0.634394 0.000000 0.773010
vn 0.471395 0.000000 0.881922
vn 0.471395 0.000000 0.881922
vn 0.290287 0.000000 0.956940
vn 0.290287 0.000000 0.956940
vn 0.098017 0.000000 0.995185
vn 0.098017 0.000000 0.995185
vn 0.000000 0.000000 1.000000
vn 0.000000 0.000000 1.000000
vn -0.995472 0.000000 -0.095056
vn -0.995472 0.000000 -0.095056
vn -0.959493 0.000000 -0.281732
vn -0.959493 0.000000 -0.281732
vn -0.888836 0.000000 -0.458226
vn -0.888836 0.000000 -0.458226
vn -0.786053 0.000000 -0.618159
vn -0.786053 0.000000 -0.618159
vn -0.654860 0.000000 -0.755751
vn -0.654860 0.000000 -0.755751
vn -0.500001 0.000000 -0.866025
vn -0.500001 0.000000 -0.866025
vn -0.327068 0.000000 -0.945001
vn -0.327068 0.000000 -0.945001
vn -0.142314 0.000000 -0.989821
vn -0.142314 0.000000 -0.989821
vn 0.047581 0.000000 -0.998867
vn 0.047581 0.000000 -0.998867
vn 0.235759 0.000000 -0.971812
vn 0.415415 0.000000 -0.909632
vn 0.235759 0.000000 -0.971812
vn 0.415415 0.000000 -0.909632
vn 0.580057 0.000000 -0.814576
vn 0.580057 0.000000 -0.814576
vn 0.723734 0.000000 -0.690079
vn 0.723734 0.000000 -0.690079
vn 0.841253 0.000000 -0.540641
vn 0.841253 0.000000 -0.540641
vn 0.928368 0.000000 -0.371662
vn 0.928368 0.000000 -0.371662
vn 0.981929 0.000000 -0.189252
vn 1.000000 0.000000 0.000000
vn 0.981929 0.000000 -0.189252
vn 1.000000 0.000000 0.000000
vn 0.981929 0.000000 0.189252
vn 0.928368 0.000000 0.371662
vn 0.981929 -0.000000 0.189252
vn 0.928368 0.000000 0.371662
vn 0.841254 0.000000 0.540641
vn 0.723734 0.000000 0.690079
vn 0.841254 -0.000000 0.540641
vn 0.723734 0.000000 0.690079
vn 0.580057 0.000000 0.814576
vn 0.580057 -0.000000 0.814576
vn 0.415415 0.000000 0.909632
vn 0.415415 -0.000000 0.909632
vn 0.235759 0.000000 0.971811
vn 0.235759 -0.000000 0.971811
vn 0.047582 0.000000 0.998867
vn 0.047582 -0.000000 0.998867
vn -0.142315 0.000000 0.989821
vn -0.327068 0.000000 0.945001
vn -0.142315 0.000000 0.989821
vn -0.327068 0.000000 0.945001
vn -0.500000 0.000000 0.866025
vn -0.654860 0.000000 0.755750
vn -0.500000 0.000000 0.866025
vn -0.786053 0.000000 0.618159
vn -0.654860 0.000000 0.755750
vn -0.786053 0.000000 0.618159
vn -0.888836 0.000000 0.458226
vn -0.888836 0.000000 0.458226
vn -0.959493 0.000000 0.281732
vn -0.959493 0.000000 0.281732
vn -0.995472 0.000000 0.095056
vn -0.995472 0.000000 0.095056
vn -0.704515 0.704515 -0.085545
vn -0.704515 0.704515 -0.085540
vn -0.704515 0.704515 0.085545
vn -0.704515 0.704515 0.085540
vn -0.671654 0.695698 -0.254724
vn -0.655584 0.713016 -0.248632
vn -0.677997 0.724056 -0.126739
vn -0.713719 0.687608 -0.133417
vn -0.582300 0.706665 -0.401934
vn -0.471879 0.702585 -0.532639
vn -0.585832 0.702343 -0.404370
vn -0.469347 0.706429 -0.529785
vn -0.587584 0.722761 -0.363817
vn -0.616673 0.688420 -0.381828
vn -0.333714 0.695949 -0.635839
vn -0.325949 0.712784 -0.621045
vn -0.437922 0.686977 -0.579903
vn -0.415025 0.725060 -0.549583
vn -0.168758 0.709032 -0.684685
vn 0.000000 0.700883 -0.713276
vn -0.189583 0.721168 -0.666315
vn -0.198234 0.689406 -0.696723
vn -0.170925 0.699910 -0.693477
vn 0.000000 0.708092 -0.706120
vn 0.171734 0.696446 -0.696757
vn 0.167963 0.712319 -0.681461
vn 0.063474 0.725773 -0.684999
vn 0.067088 0.686525 -0.724005
vn 0.322388 0.690567 -0.647444
vn 0.326505 0.711605 -0.622103
vn 0.473947 0.699413 -0.534973
vn 0.333146 0.697207 -0.634757
vn 0.467299 0.709509 -0.527473
vn 0.309668 0.719269 -0.621898
vn 0.589984 0.697192 -0.407238
vn 0.578201 0.711619 -0.399102
vn 0.508057 0.726200 -0.463153
vn 0.537529 0.686252 -0.490021
vn 0.673241 0.691898 -0.260815
vn 0.654287 0.714378 -0.248138
vn 0.710700 0.698182 -0.086296
vn 0.672986 0.694224 -0.255232
vn 0.698384 0.710683 -0.084796
vn 0.649943 0.717061 -0.251789
vn 0.710700 0.698182 0.086296
vn 0.654287 0.714378 0.248138
vn 0.698384 0.710683 0.084796
vn 0.672986 0.694224 0.255232
vn 0.727450 0.686161 0.000000
vn 0.687332 0.726343 0.000000
vn 0.589984 0.697192 0.407237
vn 0.578201 0.711619 0.399102
vn 0.649943 0.717061 0.251789
vn 0.673241 0.691898 0.260815
vn 0.473945 0.699413 0.534974
vn 0.326505 0.711605 0.622103
vn 0.467299 0.709509 0.527473
vn 0.333146 0.697207 0.634757
vn 0.508057 0.726201 0.463153
vn 0.537529 0.686252 0.490021
vn 0.322388 0.690567 0.647444
vn 0.171734 0.696446 0.696757
vn 0.167963 0.712319 0.681461
vn 0.309668 0.719269 0.621898
vn 0.063475 0.725773 0.684999
vn 0.067089 0.686525 0.724004
vn -0.000000 0.700882 0.713277
vn -0.168759 0.709031 0.684686
vn 0.000000 0.708093 0.706119
vn -0.170925 0.699911 0.693476
vn -0.189584 0.721167 0.666315
vn -0.333714 0.695949 0.635839
vn -0.325949 0.712784 0.621045
vn -0.198236 0.689406 0.696722
vn -0.471878 0.702585 0.532640
vn -0.582300 0.706666 0.401933
vn -0.415025 0.725060 0.549583
vn -0.469347 0.706429 0.529785
vn -0.585832 0.702343 0.404370
vn -0.437922 0.686977 0.579903
vn -0.616673 0.688420 0.381828
vn -0.671654 0.695698 0.254724
vn -0.587584 0.722761 0.363817
vn -0.677997 0.724056 0.126739
vn -0.655584 0.713016 0.248632
vn -0.713719 0.687608 0.133417
vn -0.704515 0.704515 -0.085545
vn -0.704515 0.704515 -0.085540
vn -0.704515 0.704515 0.085545
vn -0.704515 0.704515 0.085540
vn -0.671654 0.695698 -0.254724
vn -0.655584 0.713016 -0.248632
vn -0.677997 0.724056 -0.126739
vn -0.713719 0.687608 -0.133417
vn -0.582300 0.706666 -0.401933
vn -0.471878 0.702585 -0.532640
vn -0.585832 0.702343 -0.404370
vn -0.469347 0.706429 -0.529785
vn -0.587584 0.722761 -0.363817
vn -0.616673 0.688420 -0.381828
vn -0.333714 0.695949 -0.635839
vn -0.325949 0.712784 -0.621045
vn -0.437922 0.686977 -0.579903
vn -0.415025 0.725060 -0.549583
vn -0.168759 0.709031 -0.684686
vn 0.000000 0.700882 -0.713277
vn -0.189584 0.721168 -0.666315
vn -0.198236 0.689406 -0.696722
vn -0.170925 0.699911 -0.693476
vn 0.000000 0.708093 -0.706119
vn 0.171734 0.696446 -0.696757
vn 0.167963 0.712319 -0.681461
vn 0.063475 0.725773 -0.684999
vn 0.067089 0.686525 -0.724004
vn 0.322388 0.690567 -0.647444
vn 0.326505 0.711605 -0.622103
vn 0.473945 0.699413 -0.534974
vn 0.333146 0.697207 -0.634757
vn 0.467299 0.709509 -0.527473
vn 0.309668 0.719269 -0.621898
vn 0.589984 0.697192 -0.407237
vn 0.578201 0.711619 -0.399102
vn 0.508057 0.726201 -0.463153
vn 0.537529 0.686252 -0.490021
vn 0.673241 0.691898 -0.260815
vn 0.654287 0.714378 -0.248138
vn 0.710700 0.698182 -0.086296
vn 0.672986 0.694224 -0.255232
vn 0.698384 0.710683 -0.084796
vn 0.649943 0.717061 -0.251789
vn 0.710700 0.698182 0.086296
vn 0.654287 0.714378 0.248138
vn 0.698384 0.710683 0.084796
vn 0.672986 0.694224 0.255232
vn 0.727450 0.686161 0.000000
vn 0.687332 0.726343 0.000000
vn 0.589984 0.697192 0.407238
vn 0.578201 0.711619 0.399102
vn 0.649943 0.717061 0.251789
vn 0.673241 0.691898 0.260815
vn 0.473947 0.699413 0.534973
vn 0.326505 0.711605 0.622103
vn 0.467299 0.709509 0.527473
vn 0.333146 0.697207 0.634757
vn 0.508057 0.726200 0.463153
vn 0.537529 0.686252 0.490021
vn 0.322388 0.690567 0.647444
vn 0.171734 0.696446 0.696757
vn 0.167963 0.712319 0.681461
vn 0.309668 0.719269 0.621898
vn 0.063474 0.725773 0.684999
vn 0.067088 0.686525 0.724005
vn -0.000000 0.700883 0.713276
vn -0.168758 0.709032 0.684685
vn 0.000000 0.708092 0.706120
vn -0.170925 0.699910 0.693477
vn -0.189583 0.721168 0.666315
vn -0.333714 0.695949 0.635839
vn -0.325949 0.712784 0.621045
vn -0.198234 0.689406 0.696723
vn -0.471879 0.702585 0.532639
vn -0.582300 0.706665 0.401934
vn -0.415025 0.725060 0.549583
vn -0.469347 0.706429 0.529785
vn -0.585832 0.702343 0.404370
vn -0.437922 0.686977 0.579903
vn -0.616673 0.688420 0.381828
vn -0.671654 0.695698 0.254724
vn -0.587584 0.722761 0.363817
vn -0.677997 0.724056 0.126739
vn -0.655584 0.713016 0.248632
vn -0.713719 0.687608 0.133417
vn -0.704515 0.704515 -0.085545
vn -0.704515 0.704515 -0.085540
vn -0.704515 0.704515 0.085545
vn -0.704515 0.704515 0.085540
vn -0.671654 0.695698 -0.254724
vn -0.655584 0.713016 -0.248632
vn -0.677997 0.724056 -0.126739
vn -0.713719 0.687608 -0.133417
vn -0.582300 0.706666 -0.401933
vn -0.471878 0.702585 -0.532640
vn -0.585832 0.702343 -0.404370
vn -0.469347 0.706429 -0.529785
vn -0.587584 0.722761 -0.363817
vn -0.616673 0.688420 -0.381828
vn -0.333714 0.695949 -0.635839
vn -0.325949 0.712784 -0.621045
vn -0.437922 0.686977 -0.579903
vn -0.415025 0.725060 -0.549583
vn -0.168759 0.709031 -0.684686
vn 0.000000 0.700882 -0.713277
vn -0.189584 0.721168 -0.666315
vn -0.198236 0.689406 -0.696722
vn -0.170925 0.699911 -0.693476
vn 0.000000 0.708093 -0.706119
vn 0.171734 0.696446 -0.696757
vn 0.167963 0.712319 -0.681461
vn 0.063475 0.725773 -0.684999
vn 0.067089 0.686525 -0.724004
vn 0.322388 0.690567 -0.647444
vn 0.326505 0.711605 -0.622103
vn 0.473945 0.699413 -0.534974
vn 0.333146 0.697207 -0.634757
vn 0.467299 0.709509 -0.527473
vn 0.309668 0.719269 -0.621898
vn 0.589984 0.697192 -0.407237
vn 0.578201 0.711619 -0.399102
vn 0.508057 0.726201 -0.463153
vn 0.537529 0.686252 -0.490021
vn 0.673241 0.691898 -0.260815
vn 0.654287 0.714378 -0.248138
vn 0.710700 0.698182 -0.086296
vn 0.672986 0.694224 -0.255232
vn 0.698384 0.710683 -0.084796
vn 0.649943 0.717061 -0.251789
vn 0.710700 0.698182 0.086296
vn 0.654287 0.714378 0.248138
vn 0.698384 0.710683 0.084796
vn 0.672986 0.694224 0.255232
vn 0.727450 0.686161 0.000000
vn 0.687332 0.726343 0.000000
vn 0.589984 0.697192 0.407238
vn 0.578201 0.711619 0.399102
vn 0.649943 0.717061 0.251789
vn 0.673241 0.691898 0.260815
vn 0.473947 0.699413 0.534973
vn 0.326505 0.711605 0.622103
vn 0.467299 0.709509 0.527473
vn 0.333146 0.697207 0.634757
vn 0.508057 0.726200 0.463153
vn 0.537529 0.686252 0.490021
vn 0.322388 0.690567 0.647444
vn 0.171734 0.696446 0.696757
vn 0.167963 0.712319 0.681461
vn 0.309668 0.719269 0.621898
vn 0.063474 0.725773 0.684999
vn 0.067088 0.686525 0.724005
vn -0.000000 0.700883 0.713276
vn -0.168758 0.709032 0.684685
vn 0.000000 0.708092 0.706120
vn -0.170925 0.699910 0.693477
vn -0.189583 0.721168 0.666315
vn -0.333714 0.695949 0.635839
vn -0.325949 0.712784 0.621045
vn -0.198234 0.689406 0.696723
vn -0.471879 0.702585 0.532639
vn -0.582300 0.706665 0.401934
vn -0.415025 0.725060 0.549583
vn -0.469347 0.706429 0.529785
vn -0.585832 0.702343 0.404370
vn -0.437922 0.686977 0.579903
vn -0.616673 0.688420 0.381828
vn -0.671654 0.695698 0.254724
vn -0.587584 0.722761 0.363817
vn -0.677997 0.724056 0.126739
vn -0.655584 0.713016 0.248632
vn -0.713719 0.687608 0.133417
vn -0.992709 0.000000 -0.120532
vn -0.992709 0.000000 -0.120532
vn -0.935015 0.000000 -0.354607
vn -0.935015 0.000000 -0.354607
vn -0.822985 0.000000 -0.568064
vn -0.663122 -0.000000 -0.748512
vn -0.822985 0.000000 -0.568064
vn -0.663122 0.000000 -0.748512
vn -0.464723 0.000000 -0.885456
vn -0.464723 0.000000 -0.885456
vn -0.239313 0.000000 -0.970942
vn -0.239313 0.000000 -0.970942
vn -0.000000 0.000000 -1.000000
vn 0.000000 0.000000 -1.000000
vn 0.239313 0.000000 -0.970942
vn 0.239313 0.000000 -0.970942
vn 0.464723 0.000000 -0.885456
vn 0.464723 0.000000 -0.885456
vn 0.663122 0.000000 -0.748512
vn 0.822985 0.000000 -0.568064
vn 0.663122 0.000000 -0.748512
vn 0.822985 0.000000 -0.568064
vn 0.935015 0.000000 -0.354607
vn 0.935015 0.000000 -0.354607
vn 0.992709 0.000000 -0.120532
vn 0.992709 0.000000 -0.120532
vn 0.992709 0.000000 0.120532
vn 0.992709 -0.000000 0.120532
vn 0.935015 0.000000 0.354607
vn 0.935015 -0.000000 0.354607
vn 0.822985 0.000000 0.568064
vn 0.822985 -0.000000 0.568064
vn 0.663122 0.000000 0.748512
vn 0.663122 -0.000000 0.748512
vn 0.464723 0.000000 0.885456
vn 0.464723 -0.000000 0.885456
vn 0.239313 0.000000 0.970942
vn 0.239313 -0.000000 0.970942
vn -0.000000 0.000000 1.000000
vn 0.000000 0.000000 1.000000
vn -0.239313 0.000000 0.970942
vn -0.239313 0.000000 0.970942
vn -0.464723 0.000000 0.885456
vn -0.663122 0.000000 0.748512
vn -0.464723 0.000000 0.885456
vn -0.663122 0.000000 0.748512
vn -0.822985 0.000000 0.568064
vn -0.822985 0.000000 0.568064
vn -0.935015 0.000000 0.354607
vn -0.935015 0.000000 0.354607
vn -0.992709 0.000000 0.120532
vn -0.992709 0.000000 0.120532
vn -0.000000 -1.000000 -0.000000
vn -0.000000 -1.000000 -0.000000
vn -0.000000 -1.000000 -0.000000
vn -0.000000 -1.000000 -0.000000
vn -0.000000 -1.000000 -0.000000
vn -0.000000 -1.000000 -0.000000
vn -0.000000 -1.000000 -0.000000
vn -0.000000 -1.000000 -0.000000
vn -0.000000 -1.000000 -0.000000
vn -0.000000 -1.000000 -0.000000
vn -0.000000 -1.000000 -0.000000
vn -0.000000 -1.000000 -0.000000
vn -0.000000 -1.000000 -0.000000
vn 0.000000 -1.000000 -0.000000
vn 0.000000 -1.000000 0.000000
vn 0.000000 -1.000000 0.000000
vn 0.000000 -1.000000 0.000000
vn 0.000000 -1.000000 0.000000
vn 0.000000 -1.000000 0.000000
vn 0.000000 -1.000000 0.000000
vn 0.000000 -1.000000 0.000000
vn 0.000000 -1.000000 0.000000
vn 0.000000 -1.000000 0.000000
vn 0.000000 -1.000000 0.000000
vn 0.000000 -1.000000 0.000000
vn 0.000000 -1.000000 0.000000
vn 0.000000 -1.000000 0.000000
vn 0.000000 -1.000000 0.000000
vn 0.000000 -1.000000 0.000000
vn 0.000000 -1.000000 0.000000
vn 0.000000 -1.000000 0.000000
vn 0.000000 -1.000000 0.000000
vn 0.000000 -1.000000 -0.000000
vn 0.000000 -1.000000 0.000000
vn 0.000000 -1.000000 0.000000
vn 0.000000 -1.000000 0.000000
vn 0.000000 -1.000000 -0.000000
vn 0.000000 -1.000000 -0.000000
vn 0.000000 -1.000000 0.000000
vn 0.000000 -1.000000 0.000000
vn 0.000000 -1.000000 0.000000
vn 0.000000 -1.000000 -0.000000
vn 0.000000 -1.000000 -0.000000
vn 0.000000 -1.000000 0.000000
vn 0.000000 -1.000000 -0.000000
vn 0.000000 -1.000000 -0.000000
vn 0.000000 -1.000000 -0.000000
vn 0.000000 -1.000000 -0.000000
vn 0.000000 -1.000000 -0.000000
vn 0.000000 -1.000000 -0.000000
vn 0.000000 -1.000000 -0.000000
vn 0.000000 -1.000000 -0.000000
vn 0.000000 -1.000000 -0.000000
vn 0.000000 -1.000000 0.000000
vn 0.000000 -1.000000 0.000000
vn 0.000000 -1.000000 0.000000
vn 0.000000 -1.000000 0.000000
vn 0.000000 -1.000000 0.000000
vn 0.000000 -1.000000 0.000000
vn 0.000000 -1.000000 0.000000
vn 0.000000 -1.000000 0.000000
vn 0.000000 -1.000000 0.000000
vn 0.000000 -1.000000 0.000000
vn 0.000000 -1.000000 0.000000
vn 0.000000 -1.000000 0.000000
vn 0.000000 -1.000000 0.000000
vn 0.000000 -1.000000 0.000000
vn 0.000000 -1.000000 0.000000
vn 0.000000 -1.000000 0.000000
vn 0.000000 -1.000000 -0.000000
vn 0.000000 -1.000000 0.000000
vn 0.000000 -1.000000 0.000000
vn 0.000000 -1.000000 -0.000000
vn 0.000000 -1.000000 -0.000000
vn 0.000000 -1.000000 -0.000000
vn 0.000000 -1.000000 -0.000000
vn 0.000000 -1.000000 -0.000000
vn 0.000000 -1.000000 -0.000000
vn 0.000000 -1.000000 -0.000000
vn 0.000000 -1.000000 -0.000000
vn 0.000000 -1.000000 -0.000000
vn 0.000000 -1.000000 -0.000000
vn 0.000000 -1.000000 -0.000000
vn 0.000000 -1.000000 -0.000000
vn 0.000000 -1.000000 -0.000000
vn 0.000000 -1.000000 0.000000
vn 0.000000 -1.000000 0.000000
vn 0.000000 -1.000000 0.000000
vn 0.000000 -1.000000 0.000000
vn 0.000000 -1.000000 0.000000
vn 0.000000 -1.000000 0.000000
vn 0.000000 -1.000000 0.000000
vn 0.000000 -1.000000 0.000000
vn 0.000000 -1.000000 0.000000
vn 0.000000 -1.000000 0.000000
vn 0.000000 -1.000000 0.000000
vn 0.000000 -1.000000 0.000000
vn 0.000000 -1.000000 0.000000
vn 0.000000 -1.000000 0.000000
vn 0.000000 -1.000000 0.000000
vn 0.000000 -1.000000 0.000000
vn 0.000000 -1.000000 0.000000
vn 0.000000 -1.000000 0.000000
vn 0.000000 -1.000000 0.000000
vn 0.000000 -1.000000 0.000000
vn 0.000000 -1.000000 0.000000
vn 0.000000 -1.000000 0.000000
vn 0.000000 -1.000000 0.000000
vn 0.000000 -1.000000 0.000000
vn 0.000000 -1.000000 0.000000
vn 0.000000 -1.000000 0.000000
vn 0.000000 -1.000000 0.000000
vn 0.000000 -1.000000 0.000000
vn 0.000000 -1.000000 0.000000
vn 0.000000 -1.000000 0.000000
vn 0.000000 -1.000000 0.000000
vn 0.000000 -1.000000 0.000000
vn 0.000000 -1.000000 0.000000
vn 0.000000 -1.000000 0.000000
vn 0.000000 -1.000000 0.000000
vn 0.000000 -1.000000 0.000000
vn 0.000000 -1.000000 0.000000
vn 0.000000 -1.000000 0.000000
vn 0.000000 -1.000000 0.000000
vn 0.000000 -1.000000 0.000000
vn 0.000000 -1.000000 0.000000
vn 0.000000 -1.000000 0.000000
vn 0.000000 -1.000000 0.000000
vn 0.000000 -1.000000 0.000000
vn 0.000000 -1.000000 0.000000
vn 0.000000 -1.000000 0.000000
vn 0.000000 -1.000000 0.000000
vn 0.000000 -1.000000 0.000000
vn 0.000000 -1.000000 0.000000
vn 0.000000 -1.000000 0.000000
vn 0.000000 -1.000000 0.000000
vn 0.000000 -1.000000 0.000000
vn 0.000000 -1.000000 0.000000
vn 0.000000 -1.000000 0.000000
vn 0.000000 -1.000000 0.000000
vn 0.000000 -1.000000 0.000000
vn 0.000000 -1.000000 0.000000
vn 0.000000 -1.000000 0.000000
vn 0.000000 -1.000000 0.000000
vn 0.000000 -1.000000 0.000000
vn 0.000000 -1.000000 0.000000
vn 0.000000 -1.000000 0.000000
vn 0.000000 -1.000000 0.000000
vn 0.000000 -1.000000 0.000000
vn 0.000000 -1.000000 0.000000
vn 0.000000 -1.000000 0.000000
vn 0.000000 -1.000000 0.000000
vn 0.000000 -1.000000 0.000000
vn 0.000000 -1.000000 0.000000
vn 0.000000 -1.000000 0.000000
vn 0.000000 -1.000000 0.000000
vn 0.000000 -1.000000 0.000000
vn 0.000000 -1.000000 0.000000
vn 0.000000 -1.000000 0.000000
vn 0.000000 -1.000000 0.000000
vn 0.000000 -1.000000 0.000000
vn 0.000000 -1.000000 0.000000
vn 0.000000 -1.000000 0.000000
vn 0.000000 -1.000000 0.000000
vn 0.000000 -1.000000 0.000000
vn 0.000000 -1.000000 0.000000
vn 0.000000 -1.000000 0.000000
vn -0.000000 -1.000000 -0.000000
vn -0.000000 -1.000000 -0.000000
vn -0.000000 -1.000000 -0.000000
vn -0.000000 -1.000000 -0.000000
vn -0.000000 -1.000000 -0.000000
vn -0.000000 -1.000000 -0.000000
vn -0.000000 -1.000000 -0.000000
vn -0.000000 -1.000000 -0.000000
vn -0.000000 -1.000000 -0.000000
vn -0.000000 -1.000000 -0.000000
vn -0.000000 -1.000000 -0.000000
vn -0.000000 -1.000000 -0.000000
vn -0.000000 -1.000000 -0.000000
vn -0.000000 -1.000000 -0.000000
vn -0.992709 0.000000 -0.120532
vn -0.992709 0.000000 -0.120532
vn -0.935015 0.000000 -0.354607
vn -0.935015 0.000000 -0.354607
vn -0.822985 0.000000 -0.568064
vn -0.663122 -0.000000 -0.748512
vn -0.822985 0.000000 -0.568064
vn -0.663122 0.000000 -0.748512
vn -0.464723 0.000000 -0.885456
vn -0.464723 0.000000 -0.885456
vn -0.239313 0.000000 -0.970942
vn -0.239313 0.000000 -0.970942
vn -0.000000 0.000000 -1.000000
vn 0.000000 0.000000 -1.000000
vn 0.239313 0.000000 -0.970942
vn 0.239313 0.000000 -0.970942
vn 0.464723 0.000000 -0.885456
vn 0.464723 0.000000 -0.885456
vn 0.663122 0.000000 -0.748512
vn 0.822985 0.000000 -0.568064
vn 0.663122 0.000000 -0.748512
vn 0.822985 0.000000 -0.568064
vn 0.935015 0.000000 -0.354607
vn 0.935015 0.000000 -0.354607
vn 0.992709 0.000000 -0.120532
vn 0.992709 0.000000 -0.120532
vn 0.992709 0.000000 0.120532
vn 0.992709 -0.000000 0.120532
vn 0.935015 0.000000 0.354607
vn 0.935015 -0.000000 0.354607
vn 0.822985 0.000000 0.568064
vn 0.822985 -0.000000 0.568064
vn 0.663122 0.000000 0.748512
vn 0.663122 -0.000000 0.748512
vn 0.464723 0.000000 0.885456
vn 0.464723 -0.000000 0.885456
vn 0.239313 0.000000 0.970942
vn 0.239313 -0.000000 0.970942
vn -0.000000 0.000000 1.000000
vn 0.000000 0.000000 1.000000
vn -0.239313 0.000000 0.970942
vn -0.239313 0.000000 0.970942
vn -0.464723 0.000000 0.885456
vn -0.663122 0.000000 0.748512
vn -0.464723 0.000000 0.885456
vn -0.663122 0.000000 0.748512
vn -0.822985 0.000000 0.568064
vn -0.822985 0.000000 0.568064
vn -0.935015 0.000000 0.354607
vn -0.935015 0.000000 0.354607
vn -0.992709 0.000000 0.120532
vn -0.992709 0.000000 0.120532
vn -0.992709 0.000000 -0.120532
vn -0.992709 0.000000 -0.120532
vn -0.935015 0.000000 -0.354607
vn -0.935015 0.000000 -0.354607
vn -0.822985 0.000000 -0.568064
vn -0.663122 -0.000000 -0.748512
vn -0.822985 0.000000 -0.568064
vn -0.663122 0.000000 -0.748512
vn -0.464723 0.000000 -0.885456
vn -0.464723 0.000000 -0.885456
vn -0.239313 0.000000 -0.970942
vn -0.239313 0.000000 -0.970942
vn -0.000000 0.000000 -1.000000
vn 0.000000 0.000000 -1.000000
vn 0.239313 0.000000 -0.970942
vn 0.239313 0.000000 -0.970942
vn 0.464723 0.000000 -0.885456
vn 0.464723 0.000000 -0.885456
vn 0.663122 0.000000 -0.748512
vn 0.822985 0.000000 -0.568064
vn 0.663122 0.000000 -0.748512
vn 0.822985 0.000000 -0.568064
vn 0.935015 0.000000 -0.354607
vn 0.935015 0.000000 -0.354607
vn 0.992709 0.000000 -0.120532
vn 0.992709 0.000000 -0.120532
vn 0.992709 0.000000 0.120532
vn 0.992709 -0.000000 0.120532
vn 0.935015 0.000000 0.354607
vn 0.935015 -0.000000 0.354607
vn 0.822985 0.000000 0.568064
vn 0.822985 -0.000000 0.568064
vn 0.663122 0.000000 0.748512
vn 0.663122 -0.000000 0.748512
vn 0.464723 0.000000 0.885456
vn 0.464723 -0.000000 0.885456
vn 0.239313 0.000000 0.970942
vn 0.239313 -0.000000 0.970942
vn -0.000000 0.000000 1.000000
vn 0.000000 0.000000 1.000000
vn -0.239313 0.000000 0.970942
vn -0.239313 0.000000 0.970942
vn -0.464723 0.000000 0.885456
vn -0.663122 0.000000 0.748512
vn -0.464723 0.000000 0.885456
vn -0.663122 0.000000 0.748512
vn -0.822985 0.000000 0.568064
vn -0.822985 0.000000 0.568064
vn -0.935015 0.000000 0.354607
vn -0.935015 0.000000 0.354607
vn -0.992709 0.000000 0.120532
vn -0.992709 0.000000 0.120532
vn -0.992709 0.000000 -0.120532
vn -0.992709 0.000000 -0.120532
vn -0.935015 0.000000 -0.354607
vn -0.935015 0.000000 -0.354607
vn -0.822985 0.000000 -0.568064
vn -0.663122 -0.000000 -0.748512
vn -0.822985 0.000000 -0.568064
vn -0.663122 0.000000 -0.748512
vn -0.464723 0.000000 -0.885456
vn -0.464723 0.000000 -0.885456
vn -0.239313 0.000000 -0.970942
vn -0.239313 0.000000 -0.970942
vn -0.000000 0.000000 -1.000000
vn 0.000000 0.000000 -1.000000
vn 0.239313 0.000000 -0.970942
vn 0.239313 0.000000 -0.970942
vn 0.464723 0.000000 -0.885456
vn 0.464723 0.000000 -0.885456
vn 0.663122 0.000000 -0.748512
vn 0.822985 0.000000 -0.568064
vn 0.663122 0.000000 -0.748512
vn 0.822985 0.000000 -0.568064
vn 0.935015 0.000000 -0.354607
vn 0.935015 0.000000 -0.354607
vn 0.992709 0.000000 -0.120532
vn 0.992709 0.000000 -0.120532
vn 0.992709 0.000000 0.120532
vn 0.992709 -0.000000 0.120532
vn 0.935015 0.000000 0.354607
vn 0.935015 -0.000000 0.354607
vn 0.822985 0.000000 0.568064
vn 0.822985 -0.000000 0.568064
vn 0.663122 0.000000 0.748512
vn 0.663122 -0.000000 0.748512
vn 0.464723 0.000000 0.885456
vn 0.464723 -0.000000 0.885456
vn 0.239313 0.000000 0.970942
vn 0.239313 -0.000000 0.970942
vn -0.000000 0.000000 1.000000
vn 0.000000 0.000000 1.000000
vn -0.239313 0.000000 0.970942
vn -0.239313 0.000000 0.970942
vn -0.464723 0.000000 0.885456
vn -0.663122 0.000000 0.748512
vn -0.464723 0.000000 0.885456
vn -0.663122 0.000000 0.748512
vn -0.822985 0.000000 0.568064
vn -0.822985 0.000000 0.568064
vn -0.935015 0.000000 0.354607
vn -0.935015 0.000000 0.354607
vn -0.992709 0.000000 0.120532
vn -0.992709 0.000000 0.120532
f 1//1 2//1 3//1
f 4//2 5//2 6//2
f 4//3 6//3 2//3
f 4//4 2//4 1//4
f 7//5 3//5 8//5
f 7//6 1//6 3//6
f 9//7 10//7 5//7
f 9//8 5//8 4//8
f 11//9 8//9 12//9
f 11//10 7//10 8//10
f 13//11 14//11 10//11
f 13//12 10//12 9//12
f 15//13 12//13 16//13
f 15//14 11//14 12//14
f 17//15 14//15 13//15
f 18//16 15//16 16//16
f 19//17 14//17 17//17
f 20//18 18//18 16//18
f 21//19 14//19 19//19
f 22//20 20//20 16//20
f 23//21 14//21 21//21
f 24//22 22//22 16//22
f 25//23 22//23 24//23
f 26//24 22//24 25//24
f 26//25 27//25 22//25
f 298//26 25//26 24//26
f 28//27 29//27 27//27
f 28//28 27//28 26//28
f 30//29 298//29 24//29
f 31//30 32//30 29//30
f 31//31 29//31 28//31
f 33//32 24//32 34//32
f 33//33 30//33 24//33
f 35//34 32//34 31//34
f 35//35 36//35 32//35
f 37//36 34//36 38//36
f 37//37 33//37 34//37
f 39//38 40//38 36//38
f 39//39 36//39 35//39
f 41//40 38//40 42//40
f 41//41 37//41 38//41
f 43//42 44//42 40//42
f 43//43 40//43 39//43
f 45//44 41//44 42//44
f 46//45 45//45 42//45
f 47//46 45//46 46//46
f 48//47 47//47 46//47
f 49//48 50//48 47//48
f 49//49 47//49 48//49
f 51//50 52//50 50//50
f 51//51 50//51 49//51
f 53//52 54//52 55//52
f 53//53 55//53 52//53
f 53//54 52//54 51//54
f 53//55 56//55 57//55
f 53//56 57//56 54//56
f 58//57 59//57 14//57
f 58//58 14//58 23//58
f 60//59 59//59 58//59
f 61//60 58//60 23//60
f 61//61 23//61 62//61
f 63//62 59//62 60//62
f 64//63 61//63 62//63
f 64//64 62//64 65//64
f 66//65 59//65 63//65
f 67//66 65//66 318//66
f 67//67 64//67 65//67
f 68//68 59//68 66//68
f 68//69 69//69 59//69
f 70//70 318//70 71//70
f 70//71 67//71 318//71
f 72//72 73//72 69//72
f 72//73 69//73 68//73
f 74//74 73//74 72//74
f 74//75 75//75 73//75
f 76//76 75//76 74//76
f 77//77 76//77 74//77
f 78//78 76//78 77//78
f 78//79 77//79 79//79
f 218//80 78//80 79//80
f 218//81 79//81 80//81
f 81//82 218//82 80//82
f 81//83 80//83 362//83
f 82//84 362//84 83//84
f 82//85 83//85 84//85
f 82//86 84//86 85//86
f 82//87 81//87 362//87
f 258//88 71//88 86//88
f 257//89 86//89 87//89
f 257//90 258//90 86//90
f 88//91 70//91 71//91
f 88//92 71//92 258//92
f 89//93 43//93 90//93
f 89//94 87//94 44//94
f 89//95 44//95 43//95
f 89//96 257//96 87//96
f 91//97 70//97 88//97
f 91//98 92//98 70//98
f 93//99 90//99 314//99
f 93//100 89//100 90//100
f 94//101 95//101 92//101
f 94//102 92//102 91//102
f 96//103 314//103 275//103
f 96//104 93//104 314//104
f 97//105 95//105 94//105
f 98//106 96//106 275//106
f 99//107 100//107 95//107
f 99//108 95//108 97//108
f 101//109 275//109 102//109
f 101//110 98//110 275//110
f 103//111 104//111 100//111
f 103//112 100//112 99//112
f 105//113 101//113 102//113
f 105//114 102//114 106//114
f 267//115 107//115 104//115
f 267//116 104//116 103//116
f 108//117 105//117 106//117
f 108//118 106//118 109//118
f 110//119 107//119 267//119
f 110//120 111//120 107//120
f 112//121 108//121 109//121
f 112//122 109//122 56//122
f 113//123 111//123 110//123
f 114//124 112//124 56//124
f 114//125 56//125 53//125
f 115//126 114//126 53//126
f 116//127 117//127 118//127
f 119//128 117//128 116//128
f 119//129 120//129 117//129
f 121//130 116//130 118//130
f 121//131 118//131 122//131
f 123//132 120//132 119//132
f 123//133 124//133 120//133
f 125//134 122//134 126//134
f 125//135 121//135 122//135
f 127//136 124//136 123//136
f 127//137 128//137 124//137
f 129//138 125//138 126//138
f 129//139 126//139 130//139
f 131//140 111//140 113//140
f 131//141 128//141 127//141
f 131//142 113//142 128//142
f 132//143 129//143 130//143
f 132//144 130//144 133//144
f 134//145 111//145 131//145
f 134//146 135//146 136//146
f 134//147 136//147 111//147
f 182//148 132//148 133//148
f 182//149 133//149 137//149
f 138//150 135//150 134//150
f 139//151 182//151 137//151
f 139//152 137//152 140//152
f 141//153 85//153 135//153
f 141//154 135//154 138//154
f 142//155 115//155 53//155
f 142//156 139//156 140//156
f 142//157 143//157 144//157
f 142//158 144//158 145//158
f 142//159 145//159 146//159
f 142//160 146//160 139//160
f 142//161 140//161 147//161
f 142//162 147//162 115//162
f 222//163 141//163 203//163
f 222//164 203//164 164//164
f 222//165 164//165 148//165
f 222//166 85//166 141//166
f 222//167 82//167 85//167
f 149//168 148//168 161//168
f 149//169 222//169 148//169
f 150//170 151//170 143//170
f 150//171 143//171 142//171
f 152//172 149//172 161//172
f 152//173 161//173 153//173
f 154//174 151//174 150//174
f 154//175 155//175 151//175
f 156//176 153//176 157//176
f 156//177 152//177 153//177
f 158//178 155//178 154//178
f 159//179 156//179 157//179
f 159//180 155//180 158//180
f 159//181 157//181 155//181
f 148//182 160//182 161//182
f 162//183 163//183 160//183
f 164//184 160//184 148//184
f 165//185 162//185 160//185
f 161//186 166//186 153//186
f 167//187 166//187 163//187
f 160//188 166//188 161//188
f 163//189 166//189 160//189
f 153//190 168//190 157//190
f 157//191 168//191 155//191
f 169//192 168//192 167//192
f 170//193 168//193 169//193
f 166//194 168//194 153//194
f 167//195 168//195 166//195
f 155//196 171//196 151//196
f 172//197 171//197 170//197
f 170//198 171//198 168//198
f 168//199 171//199 155//199
f 151//200 173//200 143//200
f 143//201 173//201 144//201
f 171//202 173//202 151//202
f 172//203 173//203 171//203
f 174//204 173//204 172//204
f 175//205 173//205 174//205
f 144//206 176//206 145//206
f 177//207 176//207 175//207
f 173//208 176//208 144//208
f 175//209 176//209 173//209
f 177//210 178//210 176//210
f 145//211 178//211 146//211
f 146//212 178//212 139//212
f 179//213 178//213 177//213
f 180//214 178//214 179//214
f 176//215 178//215 145//215
f 139//216 181//216 182//216
f 183//217 181//217 180//217
f 178//218 181//218 139//218
f 180//219 181//219 178//219
f 183//220 184//220 181//220
f 182//221 184//221 132//221
f 132//222 184//222 129//222
f 185//223 184//223 183//223
f 186//224 184//224 185//224
f 181//225 184//225 182//225
f 129//226 187//226 125//226
f 125//227 187//227 121//227
f 188//228 187//228 186//228
f 189//229 187//229 188//229
f 186//230 187//230 184//230
f 184//231 187//231 129//231
f 121//232 190//232 116//232
f 191//233 190//233 189//233
f 187//234 190//234 121//234
f 189//235 190//235 187//235
f 116//236 192//236 119//236
f 119//237 192//237 123//237
f 193//238 192//238 191//238
f 194//239 192//239 193//239
f 190//240 192//240 116//240
f 191//241 192//241 190//241
f 194//242 195//242 192//242
f 123//243 195//243 127//243
f 196//244 195//244 194//244
f 192//245 195//245 123//245
f 195//246 197//246 127//246
f 196//247 197//247 195//247
f 127//248 197//248 131//248
f 131//249 197//249 134//249
f 198//250 197//250 196//250
f 199//251 197//251 198//251
f 197//252 200//252 134//252
f 134//253 200//253 138//253
f 201//254 200//254 199//254
f 199//255 200//255 197//255
f 138//256 202//256 141//256
f 141//257 202//257 203//257
f 200//258 202//258 138//258
f 204//259 202//259 201//259
f 205//260 202//260 204//260
f 201//261 202//261 200//261
f 205//262 206//262 202//262
f 203//263 206//263 164//263
f 202//264 206//264 203//264
f 164//265 206//265 160//265
f 165//266 206//266 205//266
f 160//267 206//267 165//267
f 207//268 208//268 14//268
f 207//269 14//269 59//269
f 10//270 208//270 209//270
f 10//271 14//271 208//271
f 5//272 209//272 210//272
f 5//273 10//273 209//273
f 6//274 210//274 435//274
f 6//275 5//275 210//275
f 2//276 435//276 211//276
f 2//277 6//277 435//277
f 3//278 211//278 433//278
f 3//279 2//279 211//279
f 8//280 433//280 212//280
f 8//281 3//281 433//281
f 12//282 212//282 439//282
f 12//283 8//283 212//283
f 16//284 439//284 213//284
f 16//285 12//285 439//285
f 207//286 69//286 214//286
f 59//287 69//287 207//287
f 214//288 73//288 215//288
f 69//289 73//289 214//289
f 215//290 75//290 216//290
f 73//291 75//291 215//291
f 216//292 76//292 494//292
f 75//293 76//293 216//293
f 494//294 78//294 217//294
f 76//295 78//295 494//295
f 217//296 218//296 497//296
f 78//297 218//297 217//297
f 497//298 81//298 499//298
f 218//299 81//299 497//299
f 499//300 82//300 219//300
f 81//301 82//301 499//301
f 213//302 220//302 24//302
f 213//303 24//303 16//303
f 221//304 219//304 82//304
f 221//305 82//305 222//305
f 223//306 53//306 474//306
f 53//307 51//307 474//307
f 474//308 49//308 472//308
f 472//309 49//309 470//309
f 51//310 49//310 474//310
f 49//311 48//311 470//311
f 470//312 46//312 224//312
f 48//313 46//313 470//313
f 224//314 42//314 225//314
f 46//315 42//315 224//315
f 225//316 38//316 226//316
f 42//317 38//317 225//317
f 226//318 34//318 227//318
f 227//319 34//319 220//319
f 38//320 34//320 226//320
f 34//321 24//321 220//321
f 221//322 149//322 228//322
f 222//323 149//323 221//323
f 228//324 152//324 229//324
f 149//325 152//325 228//325
f 229//326 156//326 230//326
f 152//327 156//327 229//327
f 230//328 159//328 231//328
f 156//329 159//329 230//329
f 231//330 158//330 232//330
f 159//331 158//331 231//331
f 232//332 154//332 233//332
f 158//333 154//333 232//333
f 233//334 150//334 234//334
f 154//335 150//335 233//335
f 234//336 142//336 235//336
f 150//337 142//337 234//337
f 223//338 235//338 142//338
f 223//339 142//339 53//339
f 236//340 237//340 120//340
f 120//341 237//341 117//341
f 117//342 238//342 118//342
f 237//343 238//343 117//343
f 118//344 239//344 122//344
f 238//345 239//345 118//345
f 122//346 240//346 126//346
f 239//347 240//347 122//347
f 126//348 241//348 130//348
f 240//349 241//349 126//349
f 130//350 242//350 133//350
f 241//351 242//351 130//351
f 133//352 243//352 137//352
f 242//353 243//353 133//353
f 243//354 244//354 137//354
f 137//355 244//355 140//355
f 244//356 245//356 140//356
f 140//357 245//357 147//357
f 147//358 246//358 115//358
f 115//359 246//359 114//359
f 245//360 246//360 147//360
f 246//361 247//361 114//361
f 247//362 248//362 114//362
f 114//363 248//363 112//363
f 112//364 249//364 108//364
f 248//365 249//365 112//365
f 108//366 250//366 105//366
f 249//367 250//367 108//367
f 105//368 251//368 101//368
f 250//369 251//369 105//369
f 101//370 252//370 98//370
f 98//371 252//371 96//371
f 251//372 252//372 101//372
f 252//373 253//373 96//373
f 96//374 254//374 93//374
f 93//375 254//375 89//375
f 253//376 254//376 96//376
f 254//377 255//377 89//377
f 89//378 256//378 257//378
f 257//379 256//379 258//379
f 255//380 256//380 89//380
f 256//381 259//381 258//381
f 258//382 260//382 88//382
f 259//383 260//383 258//383
f 88//384 261//384 91//384
f 260//385 261//385 88//385
f 91//386 262//386 94//386
f 261//387 262//387 91//387
f 94//388 263//388 97//388
f 262//389 263//389 94//389
f 97//390 264//390 99//390
f 99//391 264//391 103//391
f 263//392 264//392 97//392
f 264//393 265//393 103//393
f 103//394 266//394 267//394
f 267//395 266//395 110//395
f 265//396 266//396 103//396
f 110//397 268//397 113//397
f 266//398 268//398 110//398
f 268//399 269//399 113//399
f 113//400 270//400 128//400
f 269//401 270//401 113//401
f 128//402 271//402 124//402
f 270//403 271//403 128//403
f 271//404 236//404 124//404
f 124//405 236//405 120//405
f 102//406 272//406 106//406
f 273//407 274//407 272//407
f 275//408 272//408 102//408
f 276//409 273//409 272//409
f 106//410 277//410 109//410
f 278//411 277//411 274//411
f 272//412 277//412 106//412
f 274//413 277//413 272//413
f 109//414 279//414 56//414
f 56//415 279//415 57//415
f 280//416 279//416 278//416
f 281//417 279//417 280//417
f 277//418 279//418 109//418
f 278//419 279//419 277//419
f 57//420 282//420 54//420
f 283//421 282//421 281//421
f 281//422 282//422 279//422
f 279//423 282//423 57//423
f 54//424 284//424 55//424
f 55//425 284//425 52//425
f 282//426 284//426 54//426
f 283//427 284//427 282//427
f 285//428 284//428 283//428
f 286//429 284//429 285//429
f 52//430 287//430 50//430
f 288//431 287//431 286//431
f 284//432 287//432 52//432
f 286//433 287//433 284//433
f 288//434 289//434 287//434
f 50//435 289//435 47//435
f 47//436 289//436 45//436
f 290//437 289//437 288//437
f 291//438 289//438 290//438
f 287//439 289//439 50//439
f 45//440 292//440 41//440
f 293//441 292//441 291//441
f 289//442 292//442 45//442
f 291//443 292//443 289//443
f 293//444 294//444 292//444
f 41//445 294//445 37//445
f 37//446 294//446 33//446
f 295//447 294//447 293//447
f 296//448 294//448 295//448
f 292//449 294//449 41//449
f 33//450 297//450 30//450
f 30//451 297//451 298//451
f 299//452 297//452 296//452
f 300//453 297//453 299//453
f 296//454 297//454 294//454
f 294//455 297//455 33//455
f 298//456 301//456 25//456
f 302//457 301//457 300//457
f 297//458 301//458 298//458
f 300//459 301//459 297//459
f 25//460 303//460 26//460
f 26//461 303//461 28//461
f 304//462 303//462 302//462
f 305//463 303//463 304//463
f 301//464 303//464 25//464
f 302//465 303//465 301//465
f 305//466 306//466 303//466
f 28//467 306//467 31//467
f 307//468 306//468 305//468
f 303//469 306//469 28//469
f 306//470 308//470 31//470
f 307//471 308//471 306//471
f 31//472 308//472 35//472
f 35//473 308//473 39//473
f 309//474 308//474 307//474
f 310//475 308//475 309//475
f 308//476 311//476 39//476
f 39//477 311//477 43//477
f 312//478 311//478 310//478
f 310//479 311//479 308//479
f 43//480 313//480 90//480
f 90//481 313//481 314//481
f 311//482 313//482 43//482
f 315//483 313//483 312//483
f 316//484 313//484 315//484
f 312//485 313//485 311//485
f 316//486 317//486 313//486
f 314//487 317//487 275//487
f 313//488 317//488 314//488
f 275//489 317//489 272//489
f 276//490 317//490 316//490
f 272//491 317//491 276//491
f 318//492 319//492 71//492
f 320//493 321//493 319//493
f 65//494 319//494 318//494
f 322//495 320//495 319//495
f 71//496 323//496 86//496
f 324//497 323//497 321//497
f 319//498 323//498 71//498
f 321//499 323//499 319//499
f 86//500 325//500 87//500
f 87//501 325//501 44//501
f 326//502 325//502 324//502
f 327//503 325//503 326//503
f 323//504 325//504 86//504
f 324//505 325//505 323//505
f 44//506 328//506 40//506
f 329//507 328//507 327//507
f 327//508 328//508 325//508
f 325//509 328//509 44//509
f 40//510 330//510 36//510
f 36//511 330//511 32//511
f 328//512 330//512 40//512
f 329//513 330//513 328//513
f 331//514 330//514 329//514
f 332//515 330//515 331//515
f 32//516 333//516 29//516
f 334//517 333//517 332//517
f 330//518 333//518 32//518
f 332//519 333//519 330//519
f 334//520 335//520 333//520
f 29//521 335//521 27//521
f 27//522 335//522 22//522
f 336//523 335//523 334//523
f 337//524 335//524 336//524
f 333//525 335//525 29//525
f 22//526 338//526 20//526
f 339//527 338//527 337//527
f 335//528 338//528 22//528
f 337//529 338//529 335//529
f 339//530 340//530 338//530
f 20//531 340//531 18//531
f 18//532 340//532 15//532
f 341//533 340//533 339//533
f 342//534 340//534 341//534
f 338//535 340//535 20//535
f 15//536 343//536 11//536
f 11//537 343//537 7//537
f 344//538 343//538 342//538
f 345//539 343//539 344//539
f 342//540 343//540 340//540
f 340//541 343//541 15//541
f 7//542 346//542 1//542
f 347//543 346//543 345//543
f 343//544 346//544 7//544
f 345//545 346//545 343//545
f 1//546 348//546 4//546
f 4//547 348//547 9//547
f 349//548 348//548 347//548
f 350//549 348//549 349//549
f 346//550 348//550 1//550
f 347//551 348//551 346//551
f 350//552 351//552 348//552
f 9//553 351//553 13//553
f 352//554 351//554 350//554
f 348//555 351//555 9//555
f 351//556 353//556 13//556
f 352//557 353//557 351//557
f 13//558 353//558 17//558
f 17//559 353//559 19//559
f 354//560 353//560 352//560
f 355//561 353//561 354//561
f 353//562 356//562 19//562
f 19//563 356//563 21//563
f 357//564 356//564 355//564
f 355//565 356//565 353//565
f 21//566 358//566 23//566
f 23//567 358//567 62//567
f 356//568 358//568 21//568
f 359//569 358//569 357//569
f 360//570 358//570 359//570
f 357//571 358//571 356//571
f 360//572 361//572 358//572
f 62//573 361//573 65//573
f 358//574 361//574 62//574
f 65//575 361//575 319//575
f 322//576 361//576 360//576
f 319//577 361//577 322//577
f 362//578 363//578 83//578
f 364//579 365//579 363//579
f 80//580 363//580 362//580
f 366//581 364//581 363//581
f 83//582 367//582 84//582
f 368//583 367//583 365//583
f 363//584 367//584 83//584
f 365//585 367//585 363//585
f 84//586 369//586 85//586
f 85//587 369//587 135//587
f 370//588 369//588 368//588
f 371//589 369//589 370//589
f 367//590 369//590 84//590
f 368//591 369//591 367//591
f 135//592 372//592 136//592
f 373//593 372//593 371//593
f 371//594 372//594 369//594
f 369//595 372//595 135//595
f 136//596 374//596 111//596
f 111//597 374//597 107//597
f 372//598 374//598 136//598
f 373//599 374//599 372//599
f 375//600 374//600 373//600
f 376//601 374//601 375//601
f 107//602 377//602 104//602
f 378//603 377//603 376//603
f 374//604 377//604 107//604
f 376//605 377//605 374//605
f 378//606 379//606 377//606
f 104//607 379//607 100//607
f 100//608 379//608 95//608
f 380//609 379//609 378//609
f 381//610 379//610 380//610
f 377//611 379//611 104//611
f 95//612 382//612 92//612
f 383//613 382//613 381//613
f 379//614 382//614 95//614
f 381//615 382//615 379//615
f 383//616 384//616 382//616
f 92//617 384//617 70//617
f 70//618 384//618 67//618
f 385//619 384//619 383//619
f 386//620 384//620 385//620
f 382//621 384//621 92//621
f 67//622 387//622 64//622
f 64//623 387//623 61//623
f 388//624 387//624 386//624
f 389//625 387//625 388//625
f 386//626 387//626 384//626
f 384//627 387//627 67//627
f 61//628 390//628 58//628
f 391//629 390//629 389//629
f 387//630 390//630 61//630
f 389//631 390//631 387//631
f 58//632 392//632 60//632
f 60//633 392//633 63//633
f 393//634 392//634 391//634
f 394//635 392//635 393//635
f 390//636 392//636 58//636
f 391//637 392//637 390//637
f 394//638 395//638 392//638
f 63//639 395//639 66//639
f 396//640 395//640 394//640
f 392//641 395//641 63//641
f 395//642 397//642 66//642
f 396//643 397//643 395//643
f 66//644 397//644 68//644
f 68//645 397//645 72//645
f 398//646 397//646 396//646
f 399//647 397//647 398//647
f 397//648 400//648 72//648
f 72//649 400//649 74//649
f 401//650 400//650 399//650
f 399//651 400//651 397//651
f 74//652 402//652 77//652
f 77//653 402//653 79//653
f 400//654 402//654 74//654
f 403//655 402//655 401//655
f 404//656 402//656 403//656
f 401//657 402//657 400//657
f 404//658 405//658 402//658
f 79//659 405//659 80//659
f 402//660 405//660 79//660
f 80//661 405//661 363//661
f 366//662 405//662 404//662
f 363//663 405//663 366//663
f 406//664 407//664 162//664
f 162//665 407//665 163//665
f 163//666 408//666 167//666
f 407//667 408//667 163//667
f 167//668 409//668 169//668
f 169//669 409//669 170//669
f 408//670 409//670 167//670
f 409//671 410//671 170//671
f 170//672 411//672 172//672
f 410//673 411//673 170//673
f 172//674 412//674 174//674
f 411//675 412//675 172//675
f 174//676 413//676 175//676
f 412//677 413//677 174//677
f 175//678 414//678 177//678
f 413//679 414//679 175//679
f 177//680 415//680 179//680
f 414//681 415//681 177//681
f 179//682 416//682 180//682
f 180//683 416//683 183//683
f 415//684 416//684 179//684
f 416//685 417//685 183//685
f 417//686 418//686 183//686
f 183//687 418//687 185//687
f 185//688 418//688 186//688
f 418//689 419//689 186//689
f 186//690 420//690 188//690
f 419//691 420//691 186//691
f 188//692 421//692 189//692
f 420//693 421//693 188//693
f 189//694 422//694 191//694
f 421//695 422//695 189//695
f 191//696 423//696 193//696
f 422//697 423//697 191//697
f 193//698 424//698 194//698
f 423//699 424//699 193//699
f 194//700 425//700 196//700
f 424//701 425//701 194//701
f 196//702 426//702 198//702
f 425//703 426//703 196//703
f 198//704 427//704 199//704
f 426//705 427//705 198//705
f 199//706 428//706 201//706
f 201//707 428//707 204//707
f 427//708 428//708 199//708
f 428//709 429//709 204//709
f 204//710 430//710 205//710
f 429//711 430//711 204//711
f 205//712 431//712 165//712
f 430//713 431//713 205//713
f 165//714 406//714 162//714
f 431//715 406//715 165//715
f 211//716 432//716 433//716
f 210//717 434//717 435//717
f 435//718 434//718 211//718
f 211//719 434//719 432//719
f 433//720 436//720 212//720
f 432//721 436//721 433//721
f 209//722 437//722 210//722
f 210//723 437//723 434//723
f 212//724 438//724 439//724
f 436//725 438//725 212//725
f 209//726 440//726 437//726
f 208//727 440//727 209//727
f 438//728 441//728 439//728
f 439//729 441//729 213//729
f 208//730 442//730 440//730
f 441//731 443//731 213//731
f 208//732 444//732 442//732
f 443//733 445//733 213//733
f 208//734 446//734 444//734
f 445//735 447//735 213//735
f 208//736 448//736 446//736
f 447//737 449//737 213//737
f 208//738 450//738 448//738
f 449//739 451//739 213//739
f 220//740 452//740 453//740
f 453//741 454//741 220//741
f 213//742 455//742 220//742
f 451//743 455//743 213//743
f 220//744 455//744 452//744
f 454//745 456//745 220//745
f 451//746 457//746 455//746
f 458//747 457//747 451//747
f 220//748 459//748 227//748
f 456//749 459//749 220//749
f 460//750 461//750 458//750
f 458//751 461//751 457//751
f 227//752 462//752 226//752
f 459//753 462//753 227//753
f 463//754 464//754 465//754
f 465//755 464//755 460//755
f 460//756 464//756 461//756
f 226//757 466//757 225//757
f 462//758 466//758 226//758
f 463//759 467//759 464//759
f 466//760 468//760 225//760
f 468//761 224//761 225//761
f 468//762 469//762 224//762
f 469//763 470//763 224//763
f 471//764 472//764 469//764
f 469//765 472//765 470//765
f 473//766 474//766 471//766
f 471//767 474//767 472//767
f 473//768 223//768 474//768
f 475//769 223//769 476//769
f 476//770 223//770 477//770
f 477//771 223//771 478//771
f 478//772 223//772 479//772
f 479//773 223//773 473//773
f 207//774 480//774 481//774
f 481//775 482//775 207//775
f 207//776 482//776 208//776
f 208//777 482//777 450//777
f 207//778 483//778 480//778
f 450//779 484//779 485//779
f 485//780 484//780 486//780
f 482//781 484//781 450//781
f 207//782 487//782 483//782
f 484//783 488//783 486//783
f 207//784 489//784 487//784
f 214//785 489//785 207//785
f 486//786 490//786 491//786
f 488//787 490//787 486//787
f 214//788 492//788 489//788
f 215//789 492//789 214//789
f 215//790 493//790 492//790
f 216//791 493//791 215//791
f 216//792 494//792 493//792
f 494//793 495//793 493//793
f 494//794 217//794 495//794
f 495//795 217//795 496//795
f 217//796 497//796 496//796
f 496//797 497//797 498//797
f 497//798 499//798 498//798
f 498//799 499//799 500//799
f 499//800 219//800 500//800
f 500//801 219//801 501//801
f 501//802 219//802 502//802
f 502//803 219//803 503//803
f 503//804 219//804 504//804
f 504//805 219//805 505//805
f 491//806 259//806 506//806
f 259//807 256//807 506//807
f 506//808 256//808 507//808
f 491//809 260//809 259//809
f 490//810 260//810 491//810
f 463//811 255//811 467//811
f 467//812 255//812 508//812
f 507//813 255//813 463//813
f 256//814 255//814 507//814
f 490//815 261//815 260//815
f 509//816 261//816 490//816
f 508//817 254//817 510//817
f 255//818 254//818 508//818
f 509//819 262//819 261//819
f 254//820 253//820 510//820
f 511//821 263//821 509//821
f 509//822 263//822 262//822
f 253//823 252//823 510//823
f 510//824 252//824 512//824
f 511//825 264//825 263//825
f 513//826 264//826 511//826
f 512//827 251//827 514//827
f 252//828 251//828 512//828
f 513//829 265//829 264//829
f 515//830 265//830 513//830
f 251//831 250//831 514//831
f 514//832 250//832 516//832
f 515//833 266//833 265//833
f 517//834 266//834 515//834
f 475//835 249//835 223//835
f 516//836 249//836 475//836
f 250//837 249//837 516//837
f 517//838 268//838 266//838
f 518//839 268//839 517//839
f 249//840 248//840 223//840
f 518//841 269//841 268//841
f 505//842 269//842 518//842
f 248//843 247//843 223//843
f 247//844 246//844 223//844
f 237//845 422//845 238//845
f 236//846 423//846 237//846
f 237//847 423//847 422//847
f 422//848 421//848 238//848
f 238//849 421//849 239//849
f 236//850 424//850 423//850
f 271//851 424//851 236//851
f 421//852 420//852 239//852
f 239//853 420//853 240//853
f 271//854 425//854 424//854
f 270//855 425//855 271//855
f 240//856 419//856 241//856
f 420//857 419//857 240//857
f 270//858 426//858 425//858
f 269//859 426//859 270//859
f 241//860 418//860 242//860
f 419//861 418//861 241//861
f 505//862 427//862 269//862
f 269//863 427//863 426//863
f 418//864 417//864 242//864
f 412//865 235//865 413//865
f 413//866 235//866 414//866
f 414//867 235//867 415//867
f 415//868 235//868 416//868
f 416//869 235//869 417//869
f 246//870 235//870 223//870
f 242//871 235//871 243//871
f 243//872 235//872 244//872
f 244//873 235//873 245//873
f 245//874 235//874 246//874
f 417//875 235//875 242//875
f 427//876 221//876 428//876
f 428//877 221//877 429//877
f 429//878 221//878 430//878
f 430//879 221//879 431//879
f 431//880 221//880 406//880
f 505//881 221//881 427//881
f 219//882 221//882 505//882
f 221//883 228//883 406//883
f 406//884 228//884 407//884
f 411//885 234//885 412//885
f 412//886 234//886 235//886
f 228//887 229//887 407//887
f 407//888 229//888 408//888
f 411//889 233//889 234//889
f 410//890 233//890 411//890
f 229//891 230//891 408//891
f 408//892 230//892 409//892
f 410//893 232//893 233//893
f 230//894 231//894 409//894
f 410//895 231//895 232//895
f 409//896 231//896 410//896
f 514//897 516//897 273//897
f 273//898 516//898 274//898
f 274//899 475//899 278//899
f 516//900 475//900 274//900
f 278//901 476//901 280//901
f 280//902 476//902 281//902
f 475//903 476//903 278//903
f 476//904 477//904 281//904
f 281//905 478//905 283//905
f 477//906 478//906 281//906
f 283//907 479//907 285//907
f 478//908 479//908 283//908
f 285//909 473//909 286//909
f 479//910 473//910 285//910
f 286//911 471//911 288//911
f 473//912 471//912 286//912
f 288//913 469//913 290//913
f 471//914 469//914 288//914
f 290//915 468//915 291//915
f 291//916 468//916 293//916
f 469//917 468//917 290//917
f 468//918 466//918 293//918
f 466//919 462//919 293//919
f 293//920 462//920 295//920
f 295//921 462//921 296//921
f 462//922 459//922 296//922
f 296//923 456//923 299//923
f 459//924 456//924 296//924
f 299//925 454//925 300//925
f 456//926 454//926 299//926
f 300//927 453//927 302//927
f 454//928 453//928 300//928
f 302//929 452//929 304//929
f 453//930 452//930 302//930
f 304//931 455//931 305//931
f 452//932 455//932 304//932
f 305//933 457//933 307//933
f 455//934 457//934 305//934
f 307//935 461//935 309//935
f 457//936 461//936 307//936
f 309//937 464//937 310//937
f 461//938 464//938 309//938
f 310//939 467//939 312//939
f 312//940 467//940 315//940
f 464//941 467//941 310//941
f 467//942 508//942 315//942
f 315//943 510//943 316//943
f 508//944 510//944 315//944
f 316//945 512//945 276//945
f 510//946 512//946 316//946
f 276//947 514//947 273//947
f 512//948 514//948 276//948
f 486//949 491//949 320//949
f 320//950 491//950 321//950
f 321//951 506//951 324//951
f 491//952 506//952 321//952
f 324//953 507//953 326//953
f 326//954 507//954 327//954
f 506//955 507//955 324//955
f 507//956 463//956 327//956
f 327//957 465//957 329//957
f 463//958 465//958 327//958
f 329//959 460//959 331//959
f 465//960 460//960 329//960
f 331//961 458//961 332//961
f 460//962 458//962 331//962
f 332//963 451//963 334//963
f 458//964 451//964 332//964
f 334//965 449//965 336//965
f 451//966 449//966 334//966
f 336//967 447//967 337//967
f 337//968 447//968 339//968
f 449//969 447//969 336//969
f 447//970 445//970 339//970
f 445//971 443//971 339//971
f 339//972 443//972 341//972
f 341//973 443//973 342//973
f 443//974 441//974 342//974
f 342//975 438//975 344//975
f 441//976 438//976 342//976
f 344//977 436//977 345//977
f 438//978 436//978 344//978
f 345//979 432//979 347//979
f 436//980 432//980 345//980
f 347//981 434//981 349//981
f 432//982 434//982 347//982
f 349//983 437//983 350//983
f 434//984 437//984 349//984
f 350//985 440//985 352//985
f 437//986 440//986 350//986
f 352//987 442//987 354//987
f 440//988 442//988 352//988
f 354//989 444//989 355//989
f 442//990 444//990 354//990
f 355//991 446//991 357//991
f 357//992 446//992 359//992
f 444//993 446//993 355//993
f 446//994 448//994 359//994
f 359//995 450//995 360//995
f 448//996 450//996 359//996
f 360//997 485//997 322//997
f 450//998 485//998 360//998
f 322//999 486//999 320//999
f 485//1000 486//1000 322//1000
f 500//1001 501//1001 364//1001
f 364//1002 501//1002 365//1002
f 365//1003 502//1003 368//1003
f 501//1004 502//1004 365//1004
f 368//1005 503//1005 370//1005
f 370//1006 503//1006 371//1006
f 502//1007 503//1007 368//1007
f 503//1008 504//1008 371//1008
f 371//1009 505//1009 373//1009
f 504//1010 505//1010 371//1010
f 373//1011 518//1011 375//1011
f 505//1012 518//1012 373//1012
f 375//1013 517//1013 376//1013
f 518//1014 517//1014 375//1014
f 376//1015 515//1015 378//1015
f 517//1016 515//1016 376//1016
f 378//1017 513//1017 380//1017
f 515//1018 513//1018 378//1018
f 380//1019 511//1019 381//1019
f 381//1020 511//1020 383//1020
f 513//1021 511//1021 380//1021
f 511//1022 509//1022 383//1022
f 509//1023 490//1023 383//1023
f 383//1024 490//1024 385//1024
f 385//1025 490//1025 386//1025
f 490//1026 488//1026 386//1026
f 386//1027 484//1027 388//1027
f 488//1028 484//1028 386//1028
f 388//1029 482//1029 389//1029
f 484//1030 482//1030 388//1030
f 389//1031 481//1031 391//1031
f 482//1032 481//1032 389//1032
f 391//1033 480//1033 393//1033
f 481//1034 480//1034 391//1034
f 393//1035 483//1035 394//1035
f 480//1036 483//1036 393//1036
f 394//1037 487//1037 396//1037
f 483//1038 487//1038 394//1038
f 396//1039 489//1039 398//1039
f 487//1040 489//1040 396//1040
f 398//1041 492//1041 399//1041
f 489//1042 492//1042 398//1042
f 399//1043 493//1043 401//1043
f 401//1044 493//1044 403//1044
f 492//1045 493//1045 399//1045
f 493//1046 495//1046 403//1046
f 403//1047 496//1047 404//1047
f 495//1048 496//1048 403//1048
f 404//1049 498//1049 366//1049
f 496//1050 498//1050 404//1050
f 366//1051 500//1051 364//1051
f 498//1052 500//1052 366//1052
